<svg xmlns="http://www.w3.org/2000/svg" xmlns:xlink="http://www.w3.org/1999/xlink" width="48" height="39" viewBox="0 0 48 39" version="1.1" _ngcontent-c3="" class="svg-convert" src="https://d1i2cp4a5c819e.cloudfront.net/wp-content/uploads/2020/02/ic-technology-google-cloud2x.svg" alt="ic-technology-google-cloud2x">
    <!-- Generator: Sketch 61.2 (89653) - https://sketch.com -->
    
    <desc>Created with Sketch.</desc>
    <g id="Page-1" stroke="none" stroke-width="1" fill="none" fill-rule="evenodd">
        <g id="ic-technology-google-cloud" fill="#252b33" fill-rule="nonzero">
            <path d="M9.8293378,6.34300084 C16.6813076,-1.420285 28.5324392,-2.15859179 36.2957251,4.69337804 L36.2957251,4.69337804 L36.2839631,4.79093002 L36.3681475,4.70746018 C38.9920369,7.03445096 40.9083019,10.0468951 41.9080117,13.401296 L42.0331936,13.8407376 C46.982062,17.1882649 49.154736,23.3844091 47.3844091,29.0917016 C45.6100587,34.7969824 40.3091366,38.6695725 34.3342833,38.6233026 L34.3342833,38.6233026 L23.9114837,38.6233026 L23.8529631,38.56493 L13.4746018,38.5649623 C10.6497759,38.5765079 7.89673347,37.7027227 5.60104128,36.0703684 L5.29086337,35.8430847 L5.30496314,35.78293 L5.2928751,35.7968148 C0.792352827,32.3360887 -1.06481646,26.4448712 0.607682402,21.0440167 L0.710142498,20.726907 C1.69708074,17.7951198 3.62110133,15.3712302 6.08243327,13.7444618 L5.96624057,13.7766175 L5.96624057,13.7766175 L5.78977368,13.8407376 C6.54216262,11.0645432 7.92422464,8.49958089 9.8293378,6.34300084 Z M30.4838223,10.6360436 C26.1988265,7.16781224 19.9523889,7.64258173 16.2407376,11.7183571 C16.2041911,11.7109807 16.1619447,11.7243364 16.1169135,11.7517184 L16.4078026,11.8102872 C19.5095288,12.4872158 22.3100242,14.2414279 24.2776194,16.8120704 L24.2776194,16.8120704 L18.2323554,22.8573345 C17.7093043,21.7025985 16.7839061,20.7772003 15.6291702,20.2541492 C13.0058676,19.0692372 9.91986588,20.2340319 8.7349539,22.8573345 C7.55004191,25.480637 8.71483655,28.5666387 11.3381391,29.7515507 L11.3381391,29.7515507 C12.0051592,30.0649179 12.7358962,30.2222967 13.4746018,30.2222967 L13.4746018,30.2222967 L23.8974015,30.2222967 L23.8969631,30.29193 L23.9114837,30.2786253 L34.3342833,30.2786253 C37.2110645,30.2786253 39.5446773,27.9470243 39.5446773,25.0682313 C39.5446773,22.1914501 37.2130763,19.8578374 34.3342833,19.8578374 L34.3342833,19.8578374 L34.3342833,18.8177703 C34.3946354,15.6251467 32.9864208,12.5813915 30.5139983,10.5616094 L30.6019631,10.63593 Z" id="Combined-Shape" fill="#252b33"></path>
        </g>
    </g>
</svg>