<svg xmlns="http://www.w3.org/2000/svg" xmlns:xlink="http://www.w3.org/1999/xlink" width="128" height="16" viewBox="0 0 128 16" version="1.1" _ngcontent-c3="" class="svg-convert" src="https://d1i2cp4a5c819e.cloudfront.net/wp-content/uploads/2020/01/ic-technology-oracle.svg" alt="ic-technology-oracle">
    <!-- Generator: Sketch 61.2 (89653) - https://sketch.com -->
    
    <desc>Created with Sketch.</desc>
    <g id="Page-1" stroke="none" stroke-width="1" fill="none" fill-rule="evenodd">
        <g id="Brand-Logo" transform="translate(-1250.000000, -5024.000000)" fill="#252b33" fill-rule="nonzero">
            <g id="ic-technology-oracle" transform="translate(1250.000000, 5024.000000)" fill="#252b33">
                <path d="M92.6550181,0.00289357085 L95.3760656,0.00289357085 L95.3760656,13.3856587 L107.172797,13.3856587 L105.440399,16 L92.6550181,16 L92.6550181,0.00289357085 L92.6550181,0.00289357085 Z M71.2890312,16 L61.2246974,0.755221991 C60.6060378,-0.234379239 58.9565299,-0.234379239 58.2549805,0.79500859 L48.2735365,16 L51.5733057,16 L54.5844676,11.4064563 L61.0189799,11.4064563 L62.7106862,8.79283841 L56.2761739,8.79283841 L59.7824142,3.52726286 L67.9907691,16 L71.2890312,16 L71.2890312,16 Z M77.4130834,0.00795731983 C72.8149578,0.00795731983 69.7879716,3.58658107 69.7879716,8.00144679 C69.7879716,12.4155891 72.8157114,15.9956596 77.4130834,15.9956596 L88.5941695,15.9826386 L90.3438986,13.3914459 L77.4952197,13.3914459 C74.3958932,13.3914459 72.5821127,10.9782078 72.5821127,8.00144679 C72.5821127,5.02468578 74.3951396,2.61144769 77.4952197,2.61144769 L88.9407997,2.61144769 L90.6302454,0 L77.4130834,0.00795731983 L77.4130834,0.00795731983 Z M7.6258654,2.61144769 L19.4218434,2.61144769 C22.522677,2.61144769 24.3357039,5.02468578 24.3357039,8.00144679 C24.3357039,10.9782078 22.5234305,13.3914459 19.4218434,13.3914459 L7.6258654,13.3914459 C4.52503179,13.3914459 2.71275844,10.9782078 2.71275844,8.00144679 C2.71275844,5.02468578 4.52503179,2.61144769 7.6258654,2.61144769 Z M7.6258654,0.00795731983 C3.02698629,0.00795731983 0,3.58658107 0,8.00144679 C0,12.4155891 3.02698629,15.9956596 7.6258654,15.9956596 L19.4218434,15.9956596 C24.0207225,15.9956596 27.0477088,12.4155891 27.0477088,8.00144679 C27.0477088,3.58658107 24.0207225,0.00795731983 19.4218434,0.00795731983 L7.6258654,0.00795731983 Z M110.080723,9.26883082 C110.523807,11.634325 112.219281,13.3914459 114.865728,13.3914459 L127.714407,13.3914459 L125.963171,15.9826386 L114.783592,15.9956596 C110.183959,15.9956596 107.15848,12.4155891 107.15848,8.00144679 C107.15848,3.58658107 110.184712,0.00795731983 114.783592,0.00795731983 L128,0.000723392712 L126.312061,2.61217108 L114.866481,2.61217108 C112.256959,2.61217108 110.553949,4.33963288 110.081477,6.65593634 L126.229925,6.65593634 L124.497527,9.26955421 L110.080723,9.26955421 L110.080723,9.26883082 L110.080723,9.26883082 Z M42.4373381,9.50031648 C45.1341881,9.45511332 47.2957712,7.34347333 47.2957712,4.7541369 C47.2957712,2.16480048 45.1341881,0.0531604822 42.4373381,0.00795731983 L28.557811,0.00217017814 L28.557811,15.9992766 L31.6104177,15.9992766 L31.6104177,2.61217108 L42.4373381,2.61217108 C43.66962,2.61217108 44.6685819,3.57116185 44.6685819,4.7541369 C44.6685819,5.93711196 43.66962,6.89610272 42.4373381,6.89610272 L33.755004,6.89610272 L43.5495691,15.9811918 L47.4898507,15.9811918 L40.4781237,9.50610363 L42.4373381,9.50031648 L42.4373381,9.50031648 Z" fill="#252b33"></path>
            </g>
        </g>
    </g>
</svg>