<svg xmlns="http://www.w3.org/2000/svg" xmlns:xlink="http://www.w3.org/1999/xlink" width="48" height="50" viewBox="0 0 48 50" version="1.1" _ngcontent-c3="" class="svg-convert" src="https://d1i2cp4a5c819e.cloudfront.net/wp-content/uploads/2020/02/ic-technology-postgresql2x.svg" alt="ic-technology-postgresql2x">
    <!-- Generator: Sketch 61.2 (89653) - https://sketch.com -->
    
    <desc>Created with Sketch.</desc>
    <g id="Page-1" stroke="none" stroke-width="1" fill="none" fill-rule="evenodd">
        <g id="ic-technology-postgresql" fill="#252b33" fill-rule="nonzero">
            <path d="M34.4476517,0.00050293561 L34.8186929,0.00141520812 C39.7170546,0.0598677636 43.7773458,1.97019501 46.5603265,5.52621543 C47.6119086,6.86968446 48.5118149,9.83986367 46.8277798,16.359673 C45.786347,20.3917716 43.977325,24.6751599 41.7525568,28.4313474 C42.3419691,28.4148078 43.1495917,28.3292903 44.2382001,28.1046897 C44.862759,27.9759437 45.3905236,27.9466235 45.8513778,28.0154133 C46.8287196,28.1614507 47.5844679,28.7700339 47.8729717,29.643815 C48.7146133,32.1916698 45.1399858,34.0788792 44.0245005,34.5964944 C42.6128055,35.2522531 40.3141729,35.6508958 38.4342936,35.5651905 L38.4342936,35.5651905 L38.3472726,35.559364 L38.0095258,35.5296678 L37.9794538,35.7856562 C37.9649816,35.9102673 37.9499456,36.0410807 37.9335939,36.1780965 C37.8074792,41.0221406 37.1105593,44.0964443 35.6768741,46.137585 C34.1604908,48.2967585 32.0642807,48.8993273 30.2186083,49.2949627 C29.7008052,49.4058534 29.1104531,49.487048 28.4917206,49.487048 C27.2580146,49.487048 25.9109745,49.1647132 24.7973688,48.1135069 C23.7219169,47.098763 23.2992166,45.8030334 23.0464234,45.0290539 C23.0069538,44.90745 22.9695517,44.7928003 22.9417351,44.7176202 C22.4350209,43.3500935 22.2639861,41.3955979 22.1630568,38.8819501 C22.1482087,38.5101843 22.1369317,38.1126694 22.1256547,37.7072605 C22.1188885,37.4572865 22.1108066,37.167843 22.1002814,36.8648671 C20.3968875,37.6117817 18.400291,37.7450385 16.2687462,37.2121993 C15.6772665,37.0642824 15.085035,36.8146843 14.6006869,36.509265 C14.2193357,36.2685006 13.9319596,36.0093171 13.7165686,35.748442 C12.0173095,37.1637081 10.4016884,36.9562109 9.51249536,36.6600012 C7.92600655,36.130733 6.51280795,34.6570144 5.19208091,32.1544557 C4.26078698,30.389602 3.36050486,28.0924729 2.51623193,25.3262198 C1.04721208,20.5135634 0.114226597,15.4389043 0.0307766468,13.771033 C-0.231977928,8.51782098 1.18873869,4.75655879 4.25345692,2.59174678 C6.78439619,0.803775207 10.2445619,0.254584315 14.5377236,0.959398088 C16.3630973,1.25899093 17.9437596,1.72849088 18.9286194,2.06153888 C20.7075694,1.00582182 22.7894953,0.492153544 25.1458287,0.529743612 C26.4028406,0.550042249 27.600836,0.659805247 28.7150056,0.856401302 C29.9116854,0.485387332 32.2056193,-0.0305363496 34.8186929,0.00141520812 Z M34.4337485,1.31648554 L34.1312842,1.32088651 C31.3259274,1.38513401 29.0302485,2.08475701 28.5599466,2.29140214 C27.498779,2.02751987 26.3419446,1.86550667 25.0824894,1.84483214 C22.7729557,1.80743002 20.7765471,2.36037992 19.1237119,3.4875181 C18.4057416,3.22025272 16.5502958,2.58328902 14.2811714,2.21772561 C10.3582719,1.58621247 7.24092756,2.06473403 5.01634735,3.64069763 C2.36192471,5.52132872 1.13648849,8.88300849 1.37386977,13.6321377 C1.45374867,15.2299035 2.36418011,20.1451808 3.8008725,24.852397 C5.69202882,31.047992 7.74782963,34.5553333 9.91076213,35.2768746 C10.1639312,35.3612643 10.4558181,35.4202807 10.777777,35.4202807 C11.5667926,35.4202807 12.534173,35.0646787 13.540647,33.8546544 C14.7682566,32.3819794 16.0381399,30.945064 17.3487089,29.5457049 C18.1989962,30.0020484 19.1331094,30.256909 20.088461,30.2824703 C20.0903405,30.3074677 20.0927838,30.3324651 20.0950392,30.3572745 C19.9305875,30.5533785 19.7695524,30.7523226 19.6120068,30.9540168 C18.9500458,31.7943428 18.8122782,31.9693246 16.6814852,32.4080007 C16.0753453,32.5331756 14.4655507,32.8649079 14.4418689,33.9933618 C14.4163077,35.226316 16.3448661,35.7441192 16.56458,35.7990007 C17.3302897,35.99071 18.0679948,36.0852491 18.7714929,36.0852491 C20.4824049,36.0852491 21.988075,35.5229016 23.1913331,34.4348571 C23.1543069,38.8302638 23.3375585,43.1613914 23.865323,44.4809907 C24.2976088,45.5613293 25.3535138,48.2012797 28.6888805,48.2012797 C29.1783032,48.2012797 29.7169689,48.1443308 30.3095763,48.0172763 C33.7906045,47.2711135 35.3022891,45.732552 35.8870026,42.3406122 C36.1999399,40.5278312 36.7369141,36.199147 36.9895193,33.8772085 C37.5225465,34.0435445 38.2087532,34.1196644 38.9505932,34.1194765 C40.4978004,34.1194765 42.2831406,33.7907513 43.4027608,33.2710686 C44.6605245,32.686919 46.9302128,31.2536097 46.5186015,30.0082507 C46.3054658,29.363769 45.6194471,29.1564598 44.4797162,29.3917736 C41.0956704,30.0901971 39.8837666,29.6064129 39.4858757,29.3133983 C42.1162407,25.3062971 44.280113,20.4624409 45.4474725,15.943175 C46.0004224,13.8024207 46.3058417,11.814282 46.3308391,10.1937742 C46.3584678,8.4152001 46.0554919,7.10819344 45.430745,6.3097804 C42.9118345,3.09113084 39.2148513,1.36461902 34.7397538,1.31725553 L34.7397538,1.31725553 L34.4337485,1.31648554 Z M24.7245233,3.22899636 L25.0595595,3.22983819 C30.1605317,3.31328814 33.4316194,5.93106046 35.2776676,8.11260005 C36.8684793,9.99229139 37.7298557,11.8858911 38.0736169,12.9072132 C35.48836,12.6442707 33.7300845,13.1545559 32.838824,14.4288592 C30.8997404,17.2007508 33.8996157,22.5806413 35.3413828,25.1662741 C35.6058289,25.6400969 35.8340006,26.0496407 35.9057977,26.2236827 C36.3752976,27.3615341 36.983129,28.1212293 37.4268798,28.6756828 C37.5629558,28.8455899 37.6948969,29.0104224 37.7952624,29.1543923 C37.0122613,29.3801207 35.6058289,29.9016829 35.7340111,32.508742 C35.6306384,33.8168764 34.8955646,39.9414262 34.5221073,42.1052984 C34.0291135,44.9640231 32.9771555,46.0287618 30.019381,46.6629062 C26.9527832,47.3199806 25.8669941,45.755294 25.1514672,43.9665706 C24.6896732,42.8118037 24.4626292,37.6044516 24.6237026,31.8537351 C24.6257701,31.7772393 24.614869,31.7033748 24.5938185,31.6338332 C24.5749885,31.4965111 24.5463468,31.3607141 24.5081132,31.2274846 C24.2686645,30.3907297 23.6850786,29.6908026 22.9849636,29.4006073 C22.7067971,29.2853937 22.196324,29.0739496 21.5828541,29.2308881 C21.7136675,28.6918466 21.9405236,28.0830754 22.1865506,27.4239336 L22.1865506,27.4239336 L22.2897353,27.1467068 L22.4149938,26.830101 C22.5040405,26.6161439 22.6031112,26.3960332 22.7058574,26.1674855 C23.5390412,24.3165506 24.6800877,21.7812885 23.441683,16.0538778 C22.9778215,13.9086126 21.4287348,12.8609774 19.0804833,13.1043731 C17.6727352,13.2500346 16.3847116,13.8180206 15.7422973,14.1437385 C15.6041538,14.213656 15.4778512,14.2813181 15.3598184,14.3471008 C15.539123,12.1856719 16.216496,8.14624316 18.7504425,5.59049445 C20.3459529,3.98163954 22.4707315,3.18698551 25.0595595,3.22983819 Z M21.5118889,30.8458984 C21.9020216,30.4509351 22.1057051,30.5355051 22.4547557,30.6803611 C22.7594232,30.8062879 23.0561968,31.188203 23.176485,31.6084599 C23.233434,31.8069355 23.2973371,32.183588 23.0881484,32.4767905 C21.322167,34.9494651 18.7487509,34.9177015 16.9006353,34.4551558 C16.5198479,34.3600529 16.1774023,34.1948445 15.9764834,34.0578287 C16.1443231,33.9788896 16.4429762,33.871382 16.9609673,33.7646262 C19.467661,33.2487025 19.8548387,32.8844548 20.7002393,31.8110704 C20.8552608,31.6140984 21.026882,31.3961963 21.2451269,31.1429295 L21.2451269,31.1429295 L21.4183976,30.945747 Z M5.81476039,4.77253457 C9.46174877,2.1863379 15.4577405,3.7342969 17.8670759,4.51936546 C17.832493,4.55357243 17.7964066,4.58552398 17.7621996,4.6202948 C13.8084763,8.6131118 13.9022635,15.4349573 13.9120369,15.8520191 C13.911661,16.0129046 13.9251934,16.2407004 13.9436126,16.5540136 C14.0116506,17.7014505 14.1383291,19.8369422 13.8000185,22.2552992 C13.4857655,24.5026214 14.1785505,26.7022043 15.7003844,28.2901967 C15.8565677,28.4528563 16.0207248,28.607667 16.1922504,28.7540581 C15.5148774,29.4795464 14.0426624,31.0838905 12.4755325,32.9690324 C11.3666255,34.3023521 10.6009158,34.0467397 10.3490623,33.9629138 C8.70825586,33.4156024 6.80431893,29.9475428 5.12573444,24.4481158 C3.67325422,19.6895892 2.82447049,14.9045615 2.75718427,13.562784 C2.54517629,9.31924123 3.57382849,6.36184264 5.81476039,4.77253457 Z M38.5752563,30.3672359 C38.6340848,30.4151632 38.6985518,30.4627146 38.7692211,30.5093263 C39.8991785,31.2551133 41.91457,31.335556 44.7599502,30.7482112 L44.7599502,30.7482112 L44.79115,30.7420089 L44.667823,30.8531582 C44.2732716,31.1966213 43.6575463,31.6255822 42.8195509,32.0148086 C42.0188824,32.3863864 40.6789845,32.6651167 39.4061848,32.7250729 C38.0003162,32.7908555 37.2846014,32.5675705 37.1161978,32.4301788 C37.0372587,30.8055361 37.6418949,30.6358169 38.2818659,30.4561364 C38.3824193,30.4279438 38.4805294,30.4003151 38.5752563,30.3672359 Z M15.3024935,16.0426008 C15.8800649,15.5304361 18.5566657,14.096375 20.4654893,14.5337354 C21.3364512,14.7331508 21.867223,15.326322 22.0878767,16.3465165 C23.2298629,21.6284849 22.2389887,23.8299472 21.4428311,25.5991237 C21.2787505,25.9635594 21.1236914,26.3080724 20.9913744,26.6644262 L20.9913744,26.6644262 L20.8887535,26.9399614 L20.7356612,27.3521531 C20.5360008,27.894268 20.3573427,28.407177 20.2375056,28.8991558 C18.9335061,28.8953968 17.6650293,28.338312 16.7004681,27.3318379 C15.4739042,26.0518961 14.9168194,24.2716305 15.171868,22.4470086 C15.5289737,19.8923876 15.3972205,17.6674315 15.3263632,16.4720673 C15.3164018,16.3047915 15.3075682,16.1581902 15.3024935,16.0426008 Z M34.5206316,2.70124907 L34.9126681,2.70526879 C38.9224006,2.7937934 42.0942505,4.29382506 44.3398812,7.16345084 C46.0622581,9.36453726 44.1656512,19.379847 38.675058,28.020112 C38.6198414,27.9499012 38.5643329,27.8799204 38.508534,27.8101715 L38.508534,27.8101715 L38.4389923,27.7233385 L38.6012213,27.4422916 C39.835685,25.1951129 39.5705361,22.9795771 39.333448,21.0063692 C39.2319548,20.1628481 39.1361001,19.3661266 39.1605337,18.6177084 C39.185719,17.8245579 39.2905953,17.1441777 39.3920885,16.4863515 C39.5166996,15.6757217 39.6435661,14.8368993 39.6086073,13.8480926 C39.6347324,13.744344 39.6452576,13.6218004 39.6315372,13.4763268 C39.5422608,12.5281174 38.4596669,9.6902552 36.2531299,7.12172586 C35.0461128,5.71679708 33.2859579,4.14459249 30.8826369,3.08417667 C31.9163638,2.86991329 33.3299383,2.67012208 34.9126681,2.70526879 Z M33.9736682,15.2227614 C34.4031347,14.6092915 35.4930587,13.9785301 38.2288639,14.3181564 C38.2173989,15.0036113 38.1230478,15.6259149 38.0230582,16.2754712 C37.9153627,16.9740826 37.8040961,17.6963758 37.7760915,18.5731641 C37.7484628,19.4264587 37.8550306,20.3135843 37.9580274,21.1715776 C38.1662764,22.9044797 38.3799759,24.6885043 37.5528065,26.4488472 C37.4154033,26.2053835 37.2930075,25.9537502 37.1863033,25.6953543 C37.0834945,25.4461321 36.8602095,25.0457979 36.5510312,24.4917203 C35.348337,22.3348022 32.5319011,17.2838248 33.9736682,15.2227614 Z M20.0911552,15.2357444 C19.6547597,15.1998106 19.2715452,15.268308 19.066387,15.4236803 C18.9367013,15.5219783 18.8964799,15.6358762 18.8855788,15.7142515 C18.8566344,15.9219366 19.002108,16.151612 19.0915724,16.2700207 C19.3445535,16.6053241 19.7140639,16.8357512 20.0798152,16.8864978 C20.1328172,16.8940158 20.1856313,16.8973989 20.2380694,16.8973989 C20.8479683,16.8973989 21.4026097,16.4224484 21.4514768,16.071921 C21.5125607,15.632869 20.8752211,15.3402303 20.2570524,15.2541491 L20.2570524,15.2541491 Z M36.9440353,15.2680574 C36.89592,14.9239203 36.2835778,14.8258103 35.7024354,14.9066289 C35.1220447,14.9874476 34.5593214,15.2494503 34.606309,15.5943392 C34.6438991,15.8625443 35.1282471,16.3203914 35.7014956,16.3203914 C35.7499868,16.3203914 35.7988539,16.3171962 35.8480969,16.3102421 C36.2307638,16.2572401 36.5115616,16.0142203 36.6450063,15.8741973 C36.8479927,15.6606857 36.9656496,15.4227405 36.9440353,15.2680574 Z" id="Combined-Shape" fill="#252b33"></path>
        </g>
    </g>
</svg>