<?xml version="1.0" encoding="UTF-8"?>
<svg width="48px" height="48px" viewBox="0 0 48 48" version="1.1" xmlns="http://www.w3.org/2000/svg" xmlns:xlink="http://www.w3.org/1999/xlink">
    <!-- Generator: Sketch 61.2 (89653) - https://sketch.com -->
    <title>ic-technology-realm</title>
    <desc>Created with Sketch.</desc>
    <defs>
        <path d="M44.5000676,36.198648 C43.127468,38.5976978 41.3513211,40.7361907 39.2641404,42.5216133 C35.1154883,45.9441298 29.7978312,48 24,48 C17.214123,48 11.0860244,45.1837156 6.72076198,40.6562044 C7.23963724,40.8298816 7.77696077,40.9864177 8.28296915,41.1289697 C12.4461302,42.2771424 16.9276975,42.2452488 21.0669781,41.0253152 C23.7177098,40.2439199 26.2092382,39.0000661 28.812209,38.0592023 C33.7792314,36.2680939 39.2462496,35.6373296 44.5000676,36.198648 Z M13.624543,29.4165981 C18.9817274,30.1501529 23.7817008,33.1401863 29.0672437,34.3043057 C33.3338869,35.2451696 37.8552548,34.9501529 41.962695,33.4670965 C43.6994441,32.8351746 45.4224681,32.0022313 46.9702422,30.981193 C46.4927061,32.5500692 45.8596362,34.0520217 45.0881692,35.4676888 L44.9547443,35.4528923 C39.5595291,34.876467 33.980434,35.5334929 28.9327947,37.3536717 L28.2947955,37.589859 C27.941683,37.7239165 27.5762535,37.8683402 27.1258275,38.0512746 L24.5453149,39.1127503 C23.1259454,39.6879005 22.24891,40.0055359 21.2299117,40.3059211 C17.2307576,41.4845565 12.8917597,41.518621 8.85736983,40.4059625 L8.11005902,40.1899288 C7.53563281,40.0185666 7.07190024,39.8650791 6.64282371,39.7010411 L5.51162479,39.2703835 C3.76421218,37.0769041 2.39424018,34.5693914 1.5,31.8461367 C5.17881853,29.7435084 9.48526239,28.8504852 13.624543,29.4165981 Z M47.9851152,24.8769481 L47.9712104,25.1859366 C47.8917906,26.8180593 47.6493349,28.4073699 47.2597819,29.9379298 L46.8430079,30.2237774 C45.3259524,31.2668197 43.5597993,32.1553587 41.6855773,32.8373005 C37.7113779,34.2722458 33.3342585,34.5567919 29.2080753,33.6469017 L28.6122346,33.5090581 C27.0452104,33.1280787 25.5978026,32.6230394 22.9390008,31.5886226 L21.751369,31.1272748 C26.3697017,28.9990998 30.5554757,25.8605019 35.4454659,24.4661407 C39.5026174,23.303893 43.9982105,23.4822912 47.9851152,24.8769481 Z M42.9322577,9.45 C44.0348669,10.8147535 44.9896628,12.3017394 45.7726161,13.8871577 C46.5696528,15.6022236 47.170877,17.427039 47.5464903,19.3328619 L47.7001862,19.4427689 C46.0648943,18.2388026 44.2140352,17.2213083 42.3228083,16.4826448 C37.9881316,14.7906091 33.1458172,14.431181 28.6208487,15.4690112 L27.9968628,15.619427 C26.35828,16.0336818 24.8768405,16.5678668 22.4511459,17.5762725 L19.8874667,18.6589804 C18.183794,19.3764475 16.7687896,19.9227868 15.491181,20.3296988 C18.1570811,20.8570032 20.7297148,21.8756744 23.234959,22.9566552 C25.4158419,23.8976782 27.5849397,24.9016602 29.8195237,25.6977006 C29.0932405,26.0676243 28.294306,26.4975014 27.3867217,26.9993995 L25.2350516,28.2003471 C23.2943723,29.2784046 22.0540194,29.9241026 20.8314466,30.4612061 L20.602,30.56 L20.4828239,30.5143683 C17.4757501,29.376158 15.6868789,28.8551677 13.5386714,28.5610155 C9.3049402,27.9819849 4.87189145,28.8654239 1.0449824,31.0230834 C0.365279545,28.8024503 5.7843863e-10,26.443883 5.7843863e-10,24 L0.000872179829,24.0492207 C1.09034196,23.1853255 2.36291629,22.415014 3.60521673,21.8164558 C4.35240625,21.4538721 5.12407335,21.1426827 5.91300652,20.8841489 C4.09953323,20.4662734 2.33580705,19.7501467 0.728344306,18.7678226 L0.600143828,18.6896564 C0.959940344,17.2314344 1.45441947,15.8256164 2.07001629,14.4859238 C5.91838214,12.3997119 10.445968,11.1957392 14.8362277,11.2432525 C20.3417513,11.2990664 25.7427904,13.1170067 31.2483137,12.9814585 C35.3369602,12.8784697 39.4580977,11.5860264 42.9322577,9.45 Z M42.2261347,17.1429058 C44.1430477,17.8988539 46.0458036,18.9691504 47.7096971,20.2570971 C47.9008967,21.4772446 48,22.7270489 48,24 L47.9985027,23.7793771 C43.9583055,22.4755741 39.5041776,22.3714596 35.4943809,23.5201417 C34.0240459,23.9394015 32.7461085,24.4305603 31.1785071,25.1901138 L31.221338,25.2055101 C29.8692166,24.7612506 28.5962509,24.2508202 26.4527373,23.3205846 L23.9543774,22.2305255 C21.8564903,21.3253141 20.107481,20.6483902 18.5016274,20.162407 C18.9801314,19.9761127 19.4553873,19.7819807 19.9284324,19.5842392 L23.0899856,18.2370586 C25.0511449,17.4112912 27.0325868,16.6421749 29.099839,16.1621749 C33.4381235,15.1575238 38.0788939,15.5083543 42.2261347,17.1429058 Z M0.911885523,19.3685994 C1.91426597,19.9870899 2.98241305,20.5082571 4.09170803,20.9211799 L3.70006847,21.1042052 C2.55625154,21.6553098 1.43493808,22.3235107 0.448349161,23.0491112 C0.509152548,21.7946479 0.665828818,20.5653143 0.911885523,19.3685994 Z M34.5439202,2.46281563 C34.876732,2.61698804 35.2054193,2.77824663 35.5297771,2.9463913 C38.1915435,4.40654428 40.5461662,6.35730127 42.4722798,8.67665183 L42.75,8.51279796 C39.2771916,10.6140015 35.2162572,11.8337161 31.2633369,11.9317009 C29.2075216,11.98151 27.3726606,11.8093214 24.2336309,11.3272355 L21.0625377,10.8260929 C18.1424259,10.3765504 16.5535918,10.2126501 14.6131886,10.1932918 C10.6417018,10.1509947 6.50395587,11.0709511 2.78003152,12.7770469 C3.95382215,10.5627235 5.46410041,8.55377586 7.24278719,6.81872008 L7.07959358,6.77194759 C9.73638023,7.58041785 12.6281828,7.78188327 15.3634993,7.29059478 C19.8800061,6.48527917 23.8983087,3.94175756 28.3658119,2.90521272 C30.348795,2.44090795 32.5092016,2.30528548 34.5439202,2.46281563 Z M23.98,0 L23.9677144,7.56799068e-11 C26.9105582,7.56799068e-11 29.7292805,0.531427726 32.3331494,1.50355147 C30.8685526,1.5248542 29.4112683,1.69983719 28.0537583,2.02596151 C26.4186871,2.41519858 25.1407556,2.87735243 22.5630621,3.94914497 L20.9501246,4.61989292 C18.4516879,5.64430394 17.0811661,6.09919689 15.4214164,6.40283903 C13.0372886,6.84219239 10.4920902,6.70507478 8.09976883,6.02354023 C12.1550903,2.43266646 17.4350934,0.193883586 23.2336947,0.0120019003 L23.2327963,0.0110745765 L23.6031161,0.0032153143 L23.6031161,0.0032153143 L23.98,0 Z" id="path-1"></path>
    </defs>
    <g id="Page-1" stroke="none" stroke-width="1" fill="none" fill-rule="evenodd">
        <g id="ic-technology-realm">
            <mask id="mask-2" fill="white">
                <use xlink:href="#path-1"></use>
            </mask>
            <use id="Combined-Shape" fill="#252B33" fill-rule="nonzero" xlink:href="#path-1"></use>
        </g>
    </g>
</svg>