<?xml version="1.0" encoding="utf-8"?>
<!-- Generator: Adobe Illustrator 24.1.3, SVG Export Plug-In . SVG Version: 6.00 Build 0)  -->
<svg version="1.1" id="Calque_1" xmlns="http://www.w3.org/2000/svg" xmlns:xlink="http://www.w3.org/1999/xlink" x="0px" y="0px"
	 viewBox="0 0 4001 4001" style="enable-background:new 0 0 4001 4001;" xml:space="preserve">
<style type="text/css">
	.st0{fill:#09171F;}
	.st1{fill-rule:evenodd;clip-rule:evenodd;fill:#0B4970;}
	.st2{clip-path:url(#SVGID_2_);fill:url(#SVGID_3_);}
	.st3{clip-path:url(#SVGID_5_);fill:url(#SVGID_6_);}
	.st4{clip-path:url(#SVGID_8_);fill:url(#SVGID_9_);}
	.st5{filter:url(#Adobe_OpacityMaskFilter);}
	.st6{enable-background:new    ;}
	.st7{filter:url(#Adobe_OpacityMaskFilter_1_);}
	.st8{clip-path:url(#SVGID_12_);mask:url(#SVGID_10_);fill:url(#SVGID_13_);}
	.st9{clip-path:url(#SVGID_15_);}
	.st10{clip-path:url(#SVGID_17_);fill:url(#SVGID_18_);}
	.st11{clip-path:url(#SVGID_20_);fill:url(#SVGID_21_);}
	.st12{fill-rule:evenodd;clip-rule:evenodd;fill:#268BB3;}
	.st13{clip-path:url(#SVGID_23_);fill:url(#SVGID_24_);}
	.st14{fill-rule:evenodd;clip-rule:evenodd;fill:#2582A3;}
	.st15{clip-path:url(#SVGID_26_);fill:url(#SVGID_27_);}
	.st16{clip-path:url(#SVGID_29_);fill:url(#SVGID_30_);}
	.st17{clip-path:url(#SVGID_32_);fill:url(#SVGID_33_);}
	.st18{clip-path:url(#SVGID_35_);fill:url(#SVGID_36_);}
	.st19{fill-rule:evenodd;clip-rule:evenodd;fill:#47D3EE;}
	.st20{fill-rule:evenodd;clip-rule:evenodd;fill:#58D7EF;}
	.st21{fill-rule:evenodd;clip-rule:evenodd;fill:#8AE3F4;}
	.st22{filter:url(#Adobe_OpacityMaskFilter_2_);}
	.st23{clip-path:url(#SVGID_39_);}
	.st24{filter:url(#Adobe_OpacityMaskFilter_3_);}
	.st25{clip-path:url(#SVGID_41_);mask:url(#SVGID_37_);fill:url(#SVGID_42_);}
	.st26{clip-path:url(#SVGID_44_);}
	.st27{clip-path:url(#SVGID_46_);fill:url(#SVGID_47_);}
	.st28{filter:url(#Adobe_OpacityMaskFilter_4_);}
	.st29{clip-path:url(#SVGID_50_);}
	.st30{filter:url(#Adobe_OpacityMaskFilter_5_);}
	.st31{clip-path:url(#SVGID_52_);mask:url(#SVGID_48_);fill:url(#SVGID_53_);}
	.st32{clip-path:url(#SVGID_55_);}
	.st33{clip-path:url(#SVGID_57_);fill:url(#SVGID_58_);}
	.st34{filter:url(#Adobe_OpacityMaskFilter_6_);}
	.st35{clip-path:url(#SVGID_61_);}
	.st36{filter:url(#Adobe_OpacityMaskFilter_7_);}
	.st37{clip-path:url(#SVGID_63_);mask:url(#SVGID_59_);fill:url(#SVGID_64_);}
	.st38{clip-path:url(#SVGID_66_);}
	.st39{clip-path:url(#SVGID_68_);fill:url(#SVGID_69_);}
	.st40{filter:url(#Adobe_OpacityMaskFilter_8_);}
	.st41{clip-path:url(#SVGID_72_);}
	.st42{filter:url(#Adobe_OpacityMaskFilter_9_);}
	.st43{clip-path:url(#SVGID_74_);mask:url(#SVGID_70_);fill:url(#SVGID_75_);}
	.st44{clip-path:url(#SVGID_77_);}
	.st45{clip-path:url(#SVGID_79_);fill:url(#SVGID_80_);}
	.st46{fill:url(#SVGID_81_);}
	.st47{fill:url(#SVGID_82_);}
	.st48{fill:url(#SVGID_83_);}
	.st49{fill:url(#SVGID_84_);}
	.st50{fill:url(#SVGID_85_);}
	.st51{fill:url(#SVGID_86_);}
	.st52{fill:url(#SVGID_87_);}
	.st53{fill:url(#SVGID_88_);}
	.st54{fill:url(#SVGID_89_);}
	.st55{fill:url(#SVGID_90_);}
</style>
<rect x="0" y="92.78" class="st0" width="4001" height="3908.22"/>
<g>
	<path class="st1" d="M1598.3,1582.99c-26.43-161.41-14.3-261.52,36.52-300.59c-12.38,116.2,14.69,173.28,81.21,171.37
		C1637.63,1539.96,1598.3,1582.99,1598.3,1582.99"/>
	<g>
		<defs>
			<path id="SVGID_1_" d="M1557.18,1269.12c-27.07,39.58-30.26,104.96-28.86,139.44c-3.45,22.47-13.16,22.86-29.12,1.41
				c-21.97-34.73-38.82-31.42-50.44,9.71c-7.53,47.89-7.02,92.32,1.79,133.18c4.98,23.62,14.18,85.81-26.81,47.63
				c-12.01-11.11-16.09-23.24-32.95-25.8c-76.88-11.62,17.75,299.7,139.95,450.64c-38.95-204.95-11.49-369.04,69.46-515v-0.64
				c-12.77-61.04-6.26-122.08,19.41-183.12c30.04-59.2,12.84-88.85-13.58-88.86C1590.35,1237.73,1571.41,1248.19,1557.18,1269.12"/>
		</defs>
		<clipPath id="SVGID_2_">
			<use xlink:href="#SVGID_1_"  style="overflow:visible;"/>
		</clipPath>
		
			<linearGradient id="SVGID_3_" gradientUnits="userSpaceOnUse" x1="0.0408" y1="4001.042" x2="1.0408" y2="4001.042" gradientTransform="matrix(0 1418.7657 1418.7657 0 -5675059.5 923.488)">
			<stop  offset="0" style="stop-color:#FFFFFF"/>
			<stop  offset="0.5122" style="stop-color:#00C2F0"/>
			<stop  offset="1" style="stop-color:#1A3B6E"/>
		</linearGradient>
		<rect x="1313.93" y="1237.73" class="st2" width="335.74" height="787.6"/>
	</g>
	<path class="st1" d="M2528.67,1582.99c26.43-161.41,14.3-261.52-36.52-300.59c12.38,116.2-14.68,173.28-81.21,171.37
		C2489.33,1539.96,2528.67,1582.99,2528.67,1582.99"/>
	<g>
		<defs>
			<path id="SVGID_4_" d="M2507.34,1326.58c25.67,61.04,32.18,122.07,19.41,183.12v0.64c62.32,167.92,88.63,348.48,69.47,515
				c120.67-149.02,214.4-454.34,142.89-450.89c-16.73,0.77-20.18,9.96-30.52,20.69c-38.31,40.1-42.27-0.39-34.22-33.33
				c10.73-43.29,11.88-90.67,3.83-142.12c-11.62-41.12-28.47-44.44-50.44-9.71c-15.96,21.45-25.67,21.07-29.11-1.41
				c1.41-34.48-1.79-99.86-28.73-139.44c-14.28-20.94-33.25-31.4-48.96-31.39C2494.5,1237.73,2477.29,1267.38,2507.34,1326.58"/>
		</defs>
		<clipPath id="SVGID_5_">
			<use xlink:href="#SVGID_4_"  style="overflow:visible;"/>
		</clipPath>
		
			<linearGradient id="SVGID_6_" gradientUnits="userSpaceOnUse" x1="0.0404" y1="4001.0649" x2="1.0404" y2="4001.0649" gradientTransform="matrix(0 1433.5884 1433.5884 0 -5733236.5 1001.0774)">
			<stop  offset="0" style="stop-color:#FFFFFF"/>
			<stop  offset="0.4059" style="stop-color:#00C2F0"/>
			<stop  offset="1" style="stop-color:#1A3B6E"/>
		</linearGradient>
		<rect x="2477.29" y="1237.73" class="st3" width="333.32" height="787.6"/>
	</g>
	<path class="st1" d="M1828.02,1172.58c-22.73-130.76-22.86-208.01-0.25-231.89c55.93,69.98,79.04,147.23,69.33,231.89H1828.02z"/>
	<g>
		<defs>
			<path id="SVGID_7_" d="M2463.93,1610.45c-56.56,72.15-89,164.6-97.3,277.23c-41.5,329.84-564.78,329.84-606.29,0
				c-8.17-112.63-40.73-205.08-97.3-277.23l-62.69-100.24c-69.47,119.01-102.8,234.07-99.73,345.03
				c1.66,125.27,46.48,244.92,134.08,350.79c215.29,259.85,642.29,259.85,857.58,0c87.6-105.86,132.42-225.52,134.08-350.79
				c3.06-110.96-30.27-226.02-99.73-345.03L2463.93,1610.45z"/>
		</defs>
		<clipPath id="SVGID_8_">
			<use xlink:href="#SVGID_7_"  style="overflow:visible;"/>
		</clipPath>
		
			<linearGradient id="SVGID_9_" gradientUnits="userSpaceOnUse" x1="-0.0357" y1="4000.9526" x2="0.9643" y2="4000.9526" gradientTransform="matrix(0 -1622.4401 -1622.4401 0 6493369 2944.4836)">
			<stop  offset="0" style="stop-color:#FFFFFF"/>
			<stop  offset="0.7128" style="stop-color:#00C2F0"/>
			<stop  offset="0.7518" style="stop-color:#01BBE9"/>
			<stop  offset="0.8077" style="stop-color:#05A8D7"/>
			<stop  offset="0.8739" style="stop-color:#0B89B9"/>
			<stop  offset="0.9473" style="stop-color:#135E90"/>
			<stop  offset="1" style="stop-color:#1A3B6E"/>
		</linearGradient>
		<rect x="1497.55" y="1510.21" class="st4" width="1131.86" height="955.67"/>
	</g>
	<defs>
		<filter id="Adobe_OpacityMaskFilter" filterUnits="userSpaceOnUse" x="1576.08" y="1569.58" width="974.81" height="744.34">
			<feFlood  style="flood-color:white;flood-opacity:1" result="back"/>
			<feBlend  in="SourceGraphic" in2="back" mode="normal"/>
		</filter>
	</defs>
	<mask maskUnits="userSpaceOnUse" x="1576.08" y="1569.58" width="974.81" height="744.34" id="SVGID_10_">
		<g class="st5">
			<g class="st6">
				<g>
					<defs>
						<path id="SVGID_11_" d="M2489.47,1569.59l-25.54,40.86c-56.57,72.15-89,164.6-97.3,277.23
							c-41.5,329.84-564.78,329.84-606.28,0c-8.17-112.63-40.73-205.08-97.3-277.23l-25.54-40.86
							c-39.08,72.15-61.42,155.15-61.42,243.64c0,276.46,218.23,500.7,487.4,500.7c269.18,0,487.4-224.23,487.4-500.7
							C2550.88,1724.74,2528.54,1641.73,2489.47,1569.59"/>
					</defs>
					<clipPath id="SVGID_12_">
						<use xlink:href="#SVGID_11_"  style="overflow:visible;"/>
					</clipPath>
					<defs>
						
							<filter id="Adobe_OpacityMaskFilter_1_" filterUnits="userSpaceOnUse" x="1576.08" y="1569.59" width="974.8" height="744.34">
							<feFlood  style="flood-color:white;flood-opacity:1" result="back"/>
							<feBlend  in="SourceGraphic" in2="back" mode="normal"/>
						</filter>
					</defs>
					<mask maskUnits="userSpaceOnUse" x="1576.08" y="1569.59" width="974.8" height="744.34" id="SVGID_10_">
						<g class="st7">
							<g class="st6">
							</g>
						</g>
					</mask>
					
						<radialGradient id="SVGID_13_" cx="0.1494" cy="4000.8877" r="1" gradientTransform="matrix(515.2431 0 0 -515.2431 1993.9141 2063789)" gradientUnits="userSpaceOnUse">
						<stop  offset="0" style="stop-color:#FFFFFF"/>
						<stop  offset="0.4333" style="stop-color:#9D9D9C"/>
						<stop  offset="1" style="stop-color:#1D1D1B"/>
					</radialGradient>
					<rect x="1576.08" y="1569.59" class="st8" width="974.8" height="744.34"/>
				</g>
			</g>
		</g>
	</mask>
	<g>
		<g>
			<defs>
				<rect id="SVGID_14_" x="1576.09" y="1569.58" width="974.8" height="744.34"/>
			</defs>
			<clipPath id="SVGID_15_">
				<use xlink:href="#SVGID_14_"  style="overflow:visible;"/>
			</clipPath>
			<g class="st9">
				<defs>
					<path id="SVGID_16_" d="M2489.47,1569.59l-25.54,40.86c-56.57,72.15-89,164.6-97.3,277.23c-41.5,329.84-564.78,329.84-606.28,0
						c-8.17-112.63-40.73-205.08-97.3-277.23l-25.54-40.86c-39.08,72.15-61.42,155.15-61.42,243.64
						c0,276.46,218.23,500.7,487.4,500.7c269.18,0,487.4-224.23,487.4-500.7C2550.88,1724.74,2528.54,1641.73,2489.47,1569.59"/>
				</defs>
				<clipPath id="SVGID_17_">
					<use xlink:href="#SVGID_16_"  style="overflow:visible;"/>
				</clipPath>
				
					<radialGradient id="SVGID_18_" cx="0.1494" cy="4000.8877" r="1" gradientTransform="matrix(515.2431 0 0 -515.2431 1993.9142 2063789)" gradientUnits="userSpaceOnUse">
					<stop  offset="0" style="stop-color:#FFFFFF"/>
					<stop  offset="0.4333" style="stop-color:#FFFFFF"/>
					<stop  offset="1" style="stop-color:#FFFFFF"/>
				</radialGradient>
				<rect x="1576.08" y="1569.59" class="st10" width="974.8" height="744.34"/>
			</g>
		</g>
	</g>
	<g>
		<defs>
			<path id="SVGID_19_" d="M1965.42,840.32c-35.88,317.71-200.73,399.18-365.2,669.38c14.05,34.86,34.99,68.44,62.83,100.75
				c52.74,67.3,84.53,152.22,95.26,254.63c-2.17-40.23,2.68-84.02,14.69-131.27c123.22-350.01,336.98-481.16,237.64-893.48
				c-4.95-20.04-16.17-30.26-26.19-30.27C1974.53,810.05,1965.8,820.02,1965.42,840.32"/>
		</defs>
		<clipPath id="SVGID_20_">
			<use xlink:href="#SVGID_19_"  style="overflow:visible;"/>
		</clipPath>
		
			<linearGradient id="SVGID_21_" gradientUnits="userSpaceOnUse" x1="0.0376" y1="4001.074" x2="1.0376" y2="4001.074" gradientTransform="matrix(0 1540.3861 1540.3861 0 -6161343.5 360.6677)">
			<stop  offset="0" style="stop-color:#FFFFFF"/>
			<stop  offset="0.0346" style="stop-color:#EBFAFE"/>
			<stop  offset="0.1615" style="stop-color:#A4E9FA"/>
			<stop  offset="0.2814" style="stop-color:#6ADBF6"/>
			<stop  offset="0.3907" style="stop-color:#3CD0F4"/>
			<stop  offset="0.4874" style="stop-color:#1BC9F2"/>
			<stop  offset="0.5679" style="stop-color:#07C4F0"/>
			<stop  offset="0.6223" style="stop-color:#00C2F0"/>
			<stop  offset="0.6799" style="stop-color:#01BDEB"/>
			<stop  offset="0.7467" style="stop-color:#04AFDE"/>
			<stop  offset="0.8182" style="stop-color:#0898C7"/>
			<stop  offset="0.8928" style="stop-color:#0E77A8"/>
			<stop  offset="0.9692" style="stop-color:#164E80"/>
			<stop  offset="1" style="stop-color:#1A3B6E"/>
		</linearGradient>
		<rect x="1600.21" y="810.05" class="st11" width="509.75" height="1055.03"/>
	</g>
	<path class="st12" d="M1895.31,1087.28c-38.43,76.36-88.36,139.57-143.78,210.06c-12.52,44.95-22.48,94.37-33.71,153.62
		C1841.68,1415.84,1899.65,1296.45,1895.31,1087.28"/>
	<g>
		<defs>
			<path id="SVGID_22_" d="M1654.36,1426.7c38.31,36.65,78.79,34.86,120.92-15.19c53.5-63.72,75.98-170.6,83.13-259.48
				C1801.84,1241.16,1729.57,1318.79,1654.36,1426.7"/>
		</defs>
		<clipPath id="SVGID_23_">
			<use xlink:href="#SVGID_22_"  style="overflow:visible;"/>
		</clipPath>
		
			<linearGradient id="SVGID_24_" gradientUnits="userSpaceOnUse" x1="-0.0806" y1="4000.8928" x2="0.9194" y2="4000.8928" gradientTransform="matrix(0 -718.1404 -718.1404 0 2874959.25 1562.6699)">
			<stop  offset="0" style="stop-color:#FFFFFF"/>
			<stop  offset="0.4059" style="stop-color:#00C2F0"/>
			<stop  offset="1" style="stop-color:#1A3B6E"/>
		</linearGradient>
		<rect x="1654.36" y="1152.02" class="st13" width="204.05" height="311.32"/>
	</g>
	<path class="st14" d="M1627.8,1466.54c-10.09,15.07-19.28,29.37-27.58,43.16c14.05,34.86,34.99,68.44,62.83,100.75
		c50.7,64.74,82.11,145.7,93.98,242.75C1756.51,1615.17,1653.34,1574.83,1627.8,1466.54"/>
	<g>
		<defs>
			<path id="SVGID_25_" d="M1780.01,1018.45c23.11,63.21,8.3,96.54-40.99,16.86c-35.12-49.16-65.25-21.58-49.8,36.9
				c41.88,158.86,49.03,189.88-34.86,354.49c75.21-107.9,147.48-185.54,204.05-274.67c4.85-59.64,0.26-106.63-12.26-165.49
				c-9.91-46.67-35.69-71.89-55.35-71.9C1768.4,914.63,1753.96,947.38,1780.01,1018.45"/>
		</defs>
		<clipPath id="SVGID_26_">
			<use xlink:href="#SVGID_25_"  style="overflow:visible;"/>
		</clipPath>
		
			<linearGradient id="SVGID_27_" gradientUnits="userSpaceOnUse" x1="-0.0772" y1="4000.8955" x2="0.9228" y2="4000.8955" gradientTransform="matrix(0 -750.2258 -750.2258 0 3003333.75 1381.6306)">
			<stop  offset="0" style="stop-color:#FFFFFF"/>
			<stop  offset="0.4059" style="stop-color:#00C2F0"/>
			<stop  offset="1" style="stop-color:#1A3B6E"/>
		</linearGradient>
		<rect x="1654.36" y="914.63" class="st15" width="208.9" height="512.07"/>
	</g>
	<path class="st1" d="M2298.94,1172.58c22.73-130.76,22.86-208.01,0.26-231.89c-55.93,69.98-79.04,147.23-69.34,231.89H2298.94z"/>
	<g>
		<defs>
			<path id="SVGID_28_" d="M2096.81,945.28c-42.14,332.77,145.06,469.92,257.17,788.52c12,47.25,16.85,91.05,14.68,131.27
				c10.72-102.41,42.52-187.33,95.26-254.63c27.84-32.31,48.78-65.89,62.82-100.75c-144.67-237.77-289.73-329.33-346.93-564.41
				c-5.98-29.95-25.48-47.83-44.28-47.82C2118.58,897.46,2102.2,911.99,2096.81,945.28"/>
		</defs>
		<clipPath id="SVGID_29_">
			<use xlink:href="#SVGID_28_"  style="overflow:visible;"/>
		</clipPath>
		
			<linearGradient id="SVGID_30_" gradientUnits="userSpaceOnUse" x1="0.0414" y1="4001.0422" x2="1.0414" y2="4001.0422" gradientTransform="matrix(0 1398.7466 1398.7466 0 -5594153.5 568.79)">
			<stop  offset="0" style="stop-color:#FFFFFF"/>
			<stop  offset="0.0249" style="stop-color:#EBFAFE"/>
			<stop  offset="0.1164" style="stop-color:#A4E9FA"/>
			<stop  offset="0.2029" style="stop-color:#6ADBF6"/>
			<stop  offset="0.2817" style="stop-color:#3CD0F4"/>
			<stop  offset="0.3514" style="stop-color:#1BC9F2"/>
			<stop  offset="0.4094" style="stop-color:#07C4F0"/>
			<stop  offset="0.4486" style="stop-color:#00C2F0"/>
			<stop  offset="0.5327" style="stop-color:#01BDEB"/>
			<stop  offset="0.6303" style="stop-color:#04AFDE"/>
			<stop  offset="0.7346" style="stop-color:#0898C7"/>
			<stop  offset="0.8435" style="stop-color:#0E77A8"/>
			<stop  offset="0.9551" style="stop-color:#164E80"/>
			<stop  offset="1" style="stop-color:#1A3B6E"/>
		</linearGradient>
		<rect x="2054.67" y="897.46" class="st16" width="472.07" height="967.62"/>
	</g>
	<path class="st12" d="M2231.65,1087.28c38.44,76.36,88.37,139.57,143.78,210.06c12.51,44.95,23.88,94.5,34.99,153.88
		C2286.56,1415.97,2227.32,1296.45,2231.65,1087.28"/>
	<g>
		<defs>
			<path id="SVGID_31_" d="M2351.68,1411.5c42.14,50.05,82.62,51.84,120.93,15.19c-75.22-107.9-147.49-185.54-204.05-274.67
				C2275.71,1240.9,2298.18,1347.78,2351.68,1411.5"/>
		</defs>
		<clipPath id="SVGID_32_">
			<use xlink:href="#SVGID_31_"  style="overflow:visible;"/>
		</clipPath>
		
			<linearGradient id="SVGID_33_" gradientUnits="userSpaceOnUse" x1="-0.1031" y1="4000.863" x2="0.8969" y2="4000.863" gradientTransform="matrix(0 -561.6274 -561.6274 0 2249364.75 1496.1653)">
			<stop  offset="0" style="stop-color:#FFFFFF"/>
			<stop  offset="0.4059" style="stop-color:#00C2F0"/>
			<stop  offset="1" style="stop-color:#1A3B6E"/>
		</linearGradient>
		<rect x="2268.56" y="1152.02" class="st17" width="204.05" height="311.32"/>
	</g>
	<path class="st14" d="M2499.17,1466.54c10.09,15.07,19.28,29.37,27.58,43.16c-14.04,34.86-34.99,68.44-62.82,100.75
		c-50.7,64.74-82.11,145.7-93.98,242.75C2370.46,1615.17,2473.63,1574.83,2499.17,1466.54"/>
	<g>
		<defs>
			<path id="SVGID_34_" d="M2280.81,986.53c-12.51,58.87-17.11,105.86-12.26,165.49c56.57,89.13,128.84,166.77,204.05,274.67
				c-83.9-164.6-76.75-195.63-34.86-354.49c15.45-58.48-14.69-86.07-49.8-36.9c-49.29,79.68-64.1,46.35-40.99-16.86
				c26.05-71.08,11.6-103.82-10.8-103.82C2316.5,914.64,2290.72,939.86,2280.81,986.53"/>
		</defs>
		<clipPath id="SVGID_35_">
			<use xlink:href="#SVGID_34_"  style="overflow:visible;"/>
		</clipPath>
		
			<linearGradient id="SVGID_36_" gradientUnits="userSpaceOnUse" x1="-0.0598" y1="4000.9221" x2="0.9402" y2="4000.9221" gradientTransform="matrix(0 -968.0104 -968.0104 0 3875302.5 1525.7234)">
			<stop  offset="0" style="stop-color:#FFFFFF"/>
			<stop  offset="0.5167" style="stop-color:#00C2F0"/>
			<stop  offset="1" style="stop-color:#1A3B6E"/>
		</linearGradient>
		<rect x="2263.7" y="914.63" class="st18" width="208.91" height="512.07"/>
	</g>
	<path class="st19" d="M2134.22,857.3c19.93,0,36.14-22.47,36.14-50.06c0-27.46-16.22-49.93-36.14-49.93
		c-19.79,0-36.01,22.47-36.01,49.93C2098.22,834.83,2114.43,857.3,2134.22,857.3"/>
	<path class="st20" d="M2755.7,1545.45c13.28,0,24.13-14.94,24.13-33.33c0-18.39-10.85-33.33-24.13-33.33
		c-13.28,0-24.14,14.94-24.14,33.33C2731.57,1530.51,2742.42,1545.45,2755.7,1545.45"/>
	<path class="st21" d="M1628.43,1118.82c17.62,3.57,28.09,26.43,23.24,50.95c-4.85,24.39-22.98,41.25-40.73,37.54
		c-17.62-3.71-28.09-26.44-23.24-50.95C1592.55,1131.98,1610.81,1115.12,1628.43,1118.82"/>
	<path class="st20" d="M2450.78,936.73c10.98,2.43,17.23,16.73,14.04,31.8c-3.19,15.2-14.69,25.54-25.54,23.11
		c-10.99-2.43-17.24-16.73-14.04-31.92C2428.43,944.65,2439.92,934.3,2450.78,936.73"/>
	<path class="st20" d="M1381.99,1468.32c13.54,0.39,24.26,15.84,23.88,34.73c-0.39,18.77-11.75,33.84-25.41,33.45
		c-13.53-0.25-24.26-15.83-23.88-34.6C1356.96,1483.01,1368.33,1468.07,1381.99,1468.32"/>
	<path class="st19" d="M1974.87,721.05c12-0.89,22.6,11.88,23.75,28.35c1.28,16.6-7.53,30.78-19.41,31.67
		c-12,0.89-22.72-11.75-23.88-28.35C1954.18,736.12,1962.86,722.07,1974.87,721.05"/>
	<defs>
		<filter id="Adobe_OpacityMaskFilter_2_" filterUnits="userSpaceOnUse" x="2400.34" y="1388.77" width="140.21" height="336.09">
			<feFlood  style="flood-color:white;flood-opacity:1" result="back"/>
			<feBlend  in="SourceGraphic" in2="back" mode="normal"/>
		</filter>
	</defs>
	<mask maskUnits="userSpaceOnUse" x="2400.34" y="1388.77" width="140.21" height="336.09" id="SVGID_37_">
		<g class="st22">
			<g>
				<defs>
					<rect id="SVGID_38_" x="2400.34" y="1388.78" width="137.01" height="336.09"/>
				</defs>
				<clipPath id="SVGID_39_">
					<use xlink:href="#SVGID_38_"  style="overflow:visible;"/>
				</clipPath>
				<g class="st6">
					<g>
						<defs>
							<path id="SVGID_40_" d="M2532.37,1502.8c8.17-39.46,6.26-77.51-5.49-114.03c6,43.92,4.59,80.06-6.13,115.31
								c-12.64,41.5-33.33,64.87-59.12,97.81c-33.2,42.65-44.44,69.59-61.29,122.97c26.43-47.88,46.35-75.98,78.65-117.22
								C2507.09,1571.5,2523.05,1548.01,2532.37,1502.8"/>
						</defs>
						<clipPath id="SVGID_41_" class="st23">
							<use xlink:href="#SVGID_40_"  style="overflow:visible;"/>
						</clipPath>
						<defs>
							
								<filter id="Adobe_OpacityMaskFilter_3_" filterUnits="userSpaceOnUse" x="2400.34" y="1388.77" width="140.21" height="336.09">
								<feFlood  style="flood-color:white;flood-opacity:1" result="back"/>
								<feBlend  in="SourceGraphic" in2="back" mode="normal"/>
							</filter>
						</defs>
						<mask maskUnits="userSpaceOnUse" x="2400.34" y="1388.77" width="140.21" height="336.09" id="SVGID_37_">
							<g class="st24">
								<g class="st6">
								</g>
							</g>
						</mask>
						
							<radialGradient id="SVGID_42_" cx="0.4872" cy="4000.6333" r="1" gradientTransform="matrix(157.951 0 0 -157.951 2422.6787 633466.375)" gradientUnits="userSpaceOnUse">
							<stop  offset="0" style="stop-color:#FFFFFF"/>
							<stop  offset="0.0967" style="stop-color:#F8F8F8"/>
							<stop  offset="0.2331" style="stop-color:#E6E6E6"/>
							<stop  offset="0.3932" style="stop-color:#C8C8C8"/>
							<stop  offset="0.5711" style="stop-color:#9E9E9E"/>
							<stop  offset="0.7639" style="stop-color:#696968"/>
							<stop  offset="0.9662" style="stop-color:#282827"/>
							<stop  offset="1" style="stop-color:#1D1D1B"/>
						</radialGradient>
						<rect x="2400.34" y="1388.77" class="st25" width="140.21" height="336.09"/>
					</g>
				</g>
			</g>
		</g>
	</mask>
	<g>
		<g>
			<defs>
				<rect id="SVGID_43_" x="2400.34" y="1388.78" width="137.01" height="336.09"/>
			</defs>
			<clipPath id="SVGID_44_">
				<use xlink:href="#SVGID_43_"  style="overflow:visible;"/>
			</clipPath>
			<g class="st26">
				<defs>
					<path id="SVGID_45_" d="M2532.37,1502.8c8.17-39.46,6.26-77.51-5.49-114.03c6,43.92,4.59,80.06-6.13,115.31
						c-12.64,41.5-33.33,64.87-59.12,97.81c-33.2,42.65-44.44,69.59-61.29,122.97c26.43-47.88,46.35-75.98,78.65-117.22
						C2507.09,1571.5,2523.05,1548.01,2532.37,1502.8"/>
				</defs>
				<clipPath id="SVGID_46_">
					<use xlink:href="#SVGID_45_"  style="overflow:visible;"/>
				</clipPath>
				
					<radialGradient id="SVGID_47_" cx="0.4872" cy="4000.6333" r="1" gradientTransform="matrix(157.951 0 0 -157.951 2422.6787 633466.375)" gradientUnits="userSpaceOnUse">
					<stop  offset="0" style="stop-color:#FFFFFF"/>
					<stop  offset="1" style="stop-color:#FFFFFF"/>
				</radialGradient>
				<rect x="2400.34" y="1388.77" class="st27" width="140.21" height="336.09"/>
			</g>
		</g>
	</g>
	<defs>
		<filter id="Adobe_OpacityMaskFilter_4_" filterUnits="userSpaceOnUse" x="1586.68" y="1388.77" width="140.08" height="336.09">
			<feFlood  style="flood-color:white;flood-opacity:1" result="back"/>
			<feBlend  in="SourceGraphic" in2="back" mode="normal"/>
		</filter>
	</defs>
	<mask maskUnits="userSpaceOnUse" x="1586.68" y="1388.77" width="140.08" height="336.09" id="SVGID_48_">
		<g class="st28">
			<g>
				<defs>
					<rect id="SVGID_49_" x="1589.84" y="1388.78" width="136.92" height="336.09"/>
				</defs>
				<clipPath id="SVGID_50_">
					<use xlink:href="#SVGID_49_"  style="overflow:visible;"/>
				</clipPath>
				<g class="st6">
					<g>
						<defs>
							<path id="SVGID_51_" d="M1594.85,1502.8c-8.17-39.46-6.38-77.51,5.49-114.03c-6,43.92-4.73,80.06,6.13,115.31
								c12.64,41.5,33.33,64.87,58.99,97.81c33.33,42.65,44.57,69.59,61.29,122.97c-26.3-47.88-46.35-75.98-78.53-117.22
								C1620.13,1571.5,1604.05,1548.01,1594.85,1502.8"/>
						</defs>
						<clipPath id="SVGID_52_" class="st29">
							<use xlink:href="#SVGID_51_"  style="overflow:visible;"/>
						</clipPath>
						<defs>
							
								<filter id="Adobe_OpacityMaskFilter_5_" filterUnits="userSpaceOnUse" x="1586.68" y="1388.77" width="140.08" height="336.09">
								<feFlood  style="flood-color:white;flood-opacity:1" result="back"/>
								<feBlend  in="SourceGraphic" in2="back" mode="normal"/>
							</filter>
						</defs>
						<mask maskUnits="userSpaceOnUse" x="1586.68" y="1388.77" width="140.08" height="336.09" id="SVGID_48_">
							<g class="st30">
								<g class="st6">
								</g>
							</g>
						</mask>
						
							<radialGradient id="SVGID_53_" cx="0.4199" cy="4000.6841" r="1" gradientTransform="matrix(183.2848 0 0 -183.2848 1565.3257 734834.875)" gradientUnits="userSpaceOnUse">
							<stop  offset="0" style="stop-color:#FFFFFF"/>
							<stop  offset="0.497" style="stop-color:#888886"/>
							<stop  offset="0.8421" style="stop-color:#3B3B39"/>
							<stop  offset="1" style="stop-color:#1D1D1B"/>
						</radialGradient>
						<rect x="1586.68" y="1388.77" class="st31" width="140.08" height="336.09"/>
					</g>
				</g>
			</g>
		</g>
	</mask>
	<g>
		<g>
			<defs>
				<rect id="SVGID_54_" x="1589.84" y="1388.78" width="136.92" height="336.09"/>
			</defs>
			<clipPath id="SVGID_55_">
				<use xlink:href="#SVGID_54_"  style="overflow:visible;"/>
			</clipPath>
			<g class="st32">
				<defs>
					<path id="SVGID_56_" d="M1594.85,1502.8c-8.17-39.46-6.38-77.51,5.49-114.03c-6,43.92-4.73,80.06,6.13,115.31
						c12.64,41.5,33.33,64.87,58.99,97.81c33.33,42.65,44.57,69.59,61.29,122.97c-26.3-47.88-46.35-75.98-78.53-117.22
						C1620.13,1571.5,1604.05,1548.01,1594.85,1502.8"/>
				</defs>
				<clipPath id="SVGID_57_">
					<use xlink:href="#SVGID_56_"  style="overflow:visible;"/>
				</clipPath>
				
					<radialGradient id="SVGID_58_" cx="0.4199" cy="4000.6841" r="1" gradientTransform="matrix(183.2848 0 0 -183.2848 1565.3256 734834.875)" gradientUnits="userSpaceOnUse">
					<stop  offset="0" style="stop-color:#FFFFFF"/>
					<stop  offset="1" style="stop-color:#FFFFFF"/>
				</radialGradient>
				<rect x="1586.68" y="1388.77" class="st33" width="140.08" height="336.09"/>
			</g>
		</g>
	</g>
	<defs>
		<filter id="Adobe_OpacityMaskFilter_6_" filterUnits="userSpaceOnUse" x="1778.35" y="1051.91" width="96.41" height="355.77">
			<feFlood  style="flood-color:white;flood-opacity:1" result="back"/>
			<feBlend  in="SourceGraphic" in2="back" mode="normal"/>
		</filter>
	</defs>
	<mask maskUnits="userSpaceOnUse" x="1778.35" y="1051.91" width="96.41" height="355.77" id="SVGID_59_">
		<g class="st34">
			<g>
				<defs>
					<rect id="SVGID_60_" x="1778.35" y="1051.91" width="85.55" height="355.77"/>
				</defs>
				<clipPath id="SVGID_61_">
					<use xlink:href="#SVGID_60_"  style="overflow:visible;"/>
				</clipPath>
				<g class="st6">
					<g>
						<defs>
							<path id="SVGID_62_" d="M1857.13,1051.91c17.62,106.24,3.96,280.8-78.79,355.76
								C1844.24,1287.51,1853.68,1159.56,1857.13,1051.91"/>
						</defs>
						<clipPath id="SVGID_63_" class="st35">
							<use xlink:href="#SVGID_62_"  style="overflow:visible;"/>
						</clipPath>
						<defs>
							
								<filter id="Adobe_OpacityMaskFilter_7_" filterUnits="userSpaceOnUse" x="1778.35" y="1051.91" width="96.41" height="355.76">
								<feFlood  style="flood-color:white;flood-opacity:1" result="back"/>
								<feBlend  in="SourceGraphic" in2="back" mode="normal"/>
							</filter>
						</defs>
						<mask maskUnits="userSpaceOnUse" x="1778.35" y="1051.91" width="96.41" height="355.76" id="SVGID_59_">
							<g class="st36">
								<g class="st6">
								</g>
							</g>
						</mask>
						
							<radialGradient id="SVGID_64_" cx="0.4176" cy="4000.6858" r="1" gradientTransform="matrix(184.2693 0 0 -184.2693 1777.0103 738422.75)" gradientUnits="userSpaceOnUse">
							<stop  offset="0" style="stop-color:#FFFFFF"/>
							<stop  offset="0.0777" style="stop-color:#F8F8F8"/>
							<stop  offset="0.1871" style="stop-color:#E6E6E6"/>
							<stop  offset="0.3113" style="stop-color:#C9C9C9"/>
							<stop  offset="0.4101" style="stop-color:#B7B7B7"/>
							<stop  offset="0.6091" style="stop-color:#888887"/>
							<stop  offset="0.8874" style="stop-color:#3D3D3C"/>
							<stop  offset="1" style="stop-color:#1D1D1B"/>
						</radialGradient>
						<rect x="1778.35" y="1051.91" class="st37" width="96.41" height="355.76"/>
					</g>
				</g>
			</g>
		</g>
	</mask>
	<g>
		<g>
			<defs>
				<rect id="SVGID_65_" x="1778.35" y="1051.91" width="85.55" height="355.77"/>
			</defs>
			<clipPath id="SVGID_66_">
				<use xlink:href="#SVGID_65_"  style="overflow:visible;"/>
			</clipPath>
			<g class="st38">
				<defs>
					<path id="SVGID_67_" d="M1857.13,1051.91c17.62,106.24,3.96,280.8-78.79,355.76
						C1844.24,1287.51,1853.68,1159.56,1857.13,1051.91"/>
				</defs>
				<clipPath id="SVGID_68_">
					<use xlink:href="#SVGID_67_"  style="overflow:visible;"/>
				</clipPath>
				
					<radialGradient id="SVGID_69_" cx="0.4176" cy="4000.6858" r="1" gradientTransform="matrix(184.2693 0 0 -184.2693 1777.0101 738422.75)" gradientUnits="userSpaceOnUse">
					<stop  offset="0" style="stop-color:#FFFFFF"/>
					<stop  offset="0.3113" style="stop-color:#FFFFFF"/>
					<stop  offset="1" style="stop-color:#FFFFFF"/>
				</radialGradient>
				<rect x="1778.35" y="1051.91" class="st39" width="96.41" height="355.76"/>
			</g>
		</g>
	</g>
	<defs>
		<filter id="Adobe_OpacityMaskFilter_8_" filterUnits="userSpaceOnUse" x="2252.21" y="1051.91" width="96.41" height="355.77">
			<feFlood  style="flood-color:white;flood-opacity:1" result="back"/>
			<feBlend  in="SourceGraphic" in2="back" mode="normal"/>
		</filter>
	</defs>
	<mask maskUnits="userSpaceOnUse" x="2252.21" y="1051.91" width="96.41" height="355.77" id="SVGID_70_">
		<g class="st40">
			<g>
				<defs>
					<rect id="SVGID_71_" x="2263.07" y="1051.91" width="85.56" height="355.77"/>
				</defs>
				<clipPath id="SVGID_72_">
					<use xlink:href="#SVGID_71_"  style="overflow:visible;"/>
				</clipPath>
				<g class="st6">
					<g>
						<defs>
							<path id="SVGID_73_" d="M2269.83,1051.91c-17.62,106.24-3.96,280.8,78.79,355.76
								C2282.73,1287.51,2273.28,1159.56,2269.83,1051.91"/>
						</defs>
						<clipPath id="SVGID_74_" class="st41">
							<use xlink:href="#SVGID_73_"  style="overflow:visible;"/>
						</clipPath>
						<defs>
							
								<filter id="Adobe_OpacityMaskFilter_9_" filterUnits="userSpaceOnUse" x="2252.21" y="1051.91" width="96.41" height="355.76">
								<feFlood  style="flood-color:white;flood-opacity:1" result="back"/>
								<feBlend  in="SourceGraphic" in2="back" mode="normal"/>
							</filter>
						</defs>
						<mask maskUnits="userSpaceOnUse" x="2252.21" y="1051.91" width="96.41" height="355.76" id="SVGID_70_">
							<g class="st42">
								<g class="st6">
								</g>
							</g>
						</mask>
						
							<radialGradient id="SVGID_75_" cx="0.343" cy="4000.7419" r="1" gradientTransform="matrix(224.3552 0 0 -224.3552 2204.8745 898820.75)" gradientUnits="userSpaceOnUse">
							<stop  offset="0" style="stop-color:#FFFFFF"/>
							<stop  offset="0.0995" style="stop-color:#F8F8F8"/>
							<stop  offset="0.2397" style="stop-color:#E6E6E6"/>
							<stop  offset="0.3988" style="stop-color:#C9C9C9"/>
							<stop  offset="0.4851" style="stop-color:#B7B7B7"/>
							<stop  offset="0.6588" style="stop-color:#888887"/>
							<stop  offset="0.9017" style="stop-color:#3D3D3C"/>
							<stop  offset="1" style="stop-color:#1D1D1B"/>
						</radialGradient>
						<rect x="2252.21" y="1051.91" class="st43" width="96.41" height="355.76"/>
					</g>
				</g>
			</g>
		</g>
	</mask>
	<g>
		<g>
			<defs>
				<rect id="SVGID_76_" x="2263.07" y="1051.91" width="85.56" height="355.77"/>
			</defs>
			<clipPath id="SVGID_77_">
				<use xlink:href="#SVGID_76_"  style="overflow:visible;"/>
			</clipPath>
			<g class="st44">
				<defs>
					<path id="SVGID_78_" d="M2269.83,1051.91c-17.62,106.24-3.96,280.8,78.79,355.76
						C2282.73,1287.51,2273.28,1159.56,2269.83,1051.91"/>
				</defs>
				<clipPath id="SVGID_79_">
					<use xlink:href="#SVGID_78_"  style="overflow:visible;"/>
				</clipPath>
				
					<radialGradient id="SVGID_80_" cx="0.343" cy="4000.7419" r="1" gradientTransform="matrix(224.3552 0 0 -224.3552 2204.8743 898820.75)" gradientUnits="userSpaceOnUse">
					<stop  offset="0" style="stop-color:#FFFFFF"/>
					<stop  offset="0.3988" style="stop-color:#FFFFFF"/>
					<stop  offset="1" style="stop-color:#FFFFFF"/>
				</radialGradient>
				<rect x="2252.21" y="1051.91" class="st45" width="96.41" height="355.76"/>
			</g>
		</g>
	</g>
</g>
<g>
	<linearGradient id="SVGID_81_" gradientUnits="userSpaceOnUse" x1="686.204" y1="2717.7117" x2="3244.3596" y2="2717.7117">
		<stop  offset="0" style="stop-color:#FFFFFF"/>
		<stop  offset="0.0485" style="stop-color:#CEF3FC"/>
		<stop  offset="0.1039" style="stop-color:#9FE8F9"/>
		<stop  offset="0.1626" style="stop-color:#74DEF7"/>
		<stop  offset="0.2235" style="stop-color:#50D5F5"/>
		<stop  offset="0.2872" style="stop-color:#33CEF3"/>
		<stop  offset="0.3547" style="stop-color:#1CC9F2"/>
		<stop  offset="0.4277" style="stop-color:#0CC5F1"/>
		<stop  offset="0.5102" style="stop-color:#03C3F0"/>
		<stop  offset="0.6223" style="stop-color:#00C2F0"/>
		<stop  offset="0.6799" style="stop-color:#01BDEB"/>
		<stop  offset="0.7467" style="stop-color:#04AFDE"/>
		<stop  offset="0.8182" style="stop-color:#0898C7"/>
		<stop  offset="0.8928" style="stop-color:#0E77A8"/>
		<stop  offset="0.9692" style="stop-color:#164E80"/>
		<stop  offset="1" style="stop-color:#1A3B6E"/>
	</linearGradient>
	<path class="st46" d="M2438.59,2564.5c-78.42-5.26-154.83,64.53-155.1,152.38c-0.26,84.27,69.99,154.36,154.57,154.32
		c83.89-0.04,153.91-68.32,154.18-153C2592.52,2626.53,2514.83,2559.61,2438.59,2564.5z M2529.43,2719.33
		c0.55,47.58-40.77,89.08-90.38,89.59c-51.39,0.53-94.08-42.36-93.63-91.81c0.46-51.1,42.79-92.31,93.54-91.07
		C2491.69,2627.32,2530.44,2667.28,2529.43,2719.33z"/>
	<linearGradient id="SVGID_82_" gradientUnits="userSpaceOnUse" x1="686.204" y1="2717.7947" x2="3244.3596" y2="2717.7947">
		<stop  offset="0" style="stop-color:#FFFFFF"/>
		<stop  offset="0.0485" style="stop-color:#CEF3FC"/>
		<stop  offset="0.1039" style="stop-color:#9FE8F9"/>
		<stop  offset="0.1626" style="stop-color:#74DEF7"/>
		<stop  offset="0.2235" style="stop-color:#50D5F5"/>
		<stop  offset="0.2872" style="stop-color:#33CEF3"/>
		<stop  offset="0.3547" style="stop-color:#1CC9F2"/>
		<stop  offset="0.4277" style="stop-color:#0CC5F1"/>
		<stop  offset="0.5102" style="stop-color:#03C3F0"/>
		<stop  offset="0.6223" style="stop-color:#00C2F0"/>
		<stop  offset="0.6799" style="stop-color:#01BDEB"/>
		<stop  offset="0.7467" style="stop-color:#04AFDE"/>
		<stop  offset="0.8182" style="stop-color:#0898C7"/>
		<stop  offset="0.8928" style="stop-color:#0E77A8"/>
		<stop  offset="0.9692" style="stop-color:#164E80"/>
		<stop  offset="1" style="stop-color:#1A3B6E"/>
	</linearGradient>
	<path class="st47" d="M3131.35,2663.54c22.58-25.2,39.58-50.46,32.41-85.9c-0.1-0.47-0.07-0.99,0-1.47
		c1.22-8.73-1.95-11.93-11.34-11.88c-70.81,0.37-141.63,0.32-212.45,0.04c-8.25-0.03-11.6,2.59-11.43,10.8
		c0.29,13.26,0.34,26.53-0.03,39.79c-0.25,9.01,3.5,11.77,12.36,11.43c16.71-0.64,33.46-0.18,50.19-0.18h89.04
		c-1.4,2.94-1.76,4.34-2.59,5.34c-39.6,47.54-78.17,95.98-119.3,142.16c-21.8,24.48-34.66,49.45-30.12,82.88
		c1.5,11.09,3.67,14.85,15.4,14.74c63.97-0.59,127.95-0.36,191.93-0.26c28.33,0.05,28.33,0.21,28.34-28.55
		c0.01-33.42,0.01-33.36-33.67-33.29c-38.7,0.07-77.41,0.02-119.46,0.02c4.42-6.34,6.41-9.71,8.88-12.67
		C3056.61,2752.05,3092.72,2706.67,3131.35,2663.54z"/>
	<linearGradient id="SVGID_83_" gradientUnits="userSpaceOnUse" x1="686.204" y1="2717.3311" x2="3244.3596" y2="2717.3311">
		<stop  offset="0" style="stop-color:#FFFFFF"/>
		<stop  offset="0.0485" style="stop-color:#CEF3FC"/>
		<stop  offset="0.1039" style="stop-color:#9FE8F9"/>
		<stop  offset="0.1626" style="stop-color:#74DEF7"/>
		<stop  offset="0.2235" style="stop-color:#50D5F5"/>
		<stop  offset="0.2872" style="stop-color:#33CEF3"/>
		<stop  offset="0.3547" style="stop-color:#1CC9F2"/>
		<stop  offset="0.4277" style="stop-color:#0CC5F1"/>
		<stop  offset="0.5102" style="stop-color:#03C3F0"/>
		<stop  offset="0.6223" style="stop-color:#00C2F0"/>
		<stop  offset="0.6799" style="stop-color:#01BDEB"/>
		<stop  offset="0.7467" style="stop-color:#04AFDE"/>
		<stop  offset="0.8182" style="stop-color:#0898C7"/>
		<stop  offset="0.8928" style="stop-color:#0E77A8"/>
		<stop  offset="0.9692" style="stop-color:#164E80"/>
		<stop  offset="1" style="stop-color:#1A3B6E"/>
	</linearGradient>
	<path class="st48" d="M1028.64,2620.23c15.92-17.69,31.66-35.53,49.67-55.78c-17.74,0-32.15,1.91-45.86-0.39
		c-29.08-4.88-47.4,8.4-64.53,29.85c-20.39,25.53-43.56,48.84-68.67,76.59c0-31.76,0.02-58.77-0.01-85.78
		c-0.02-20.22-0.05-20.23-19.53-20.26c-10.83-0.01-21.68,0.37-32.49-0.1c-7.81-0.33-11.67,1.6-11.65,10.45
		c0.21,95.33,0.18,190.66,0.02,285.99c-0.01,7.54,2.4,10.66,10.22,10.33c11.3-0.47,22.64-0.12,33.96-0.12
		c19.42,0,19.45-0.01,19.46-18.86c0.03-27.72,0.01-55.44,0.01-83.16c29.53,27.72,56.06,56.39,81.68,85.86
		c9.55,10.99,18.97,18.24,34.72,16.48c14.1-1.57,28.52-0.18,42.79-0.51c5.12-0.12,12.29,2.79,14.73-3.18
		c1.8-4.41-3.98-8.35-6.85-12.22c-1.46-1.97-3-3.9-4.66-5.71c-38.07-41.55-76.05-83.17-114.36-124.49c-5.5-5.93-5.54-9.39,0.13-15.5
		C974.84,2680.22,1001.69,2650.18,1028.64,2620.23z"/>
	<linearGradient id="SVGID_84_" gradientUnits="userSpaceOnUse" x1="686.204" y1="2717.5383" x2="3244.3596" y2="2717.5383">
		<stop  offset="0" style="stop-color:#FFFFFF"/>
		<stop  offset="0.0485" style="stop-color:#CEF3FC"/>
		<stop  offset="0.1039" style="stop-color:#9FE8F9"/>
		<stop  offset="0.1626" style="stop-color:#74DEF7"/>
		<stop  offset="0.2235" style="stop-color:#50D5F5"/>
		<stop  offset="0.2872" style="stop-color:#33CEF3"/>
		<stop  offset="0.3547" style="stop-color:#1CC9F2"/>
		<stop  offset="0.4277" style="stop-color:#0CC5F1"/>
		<stop  offset="0.5102" style="stop-color:#03C3F0"/>
		<stop  offset="0.6223" style="stop-color:#00C2F0"/>
		<stop  offset="0.6799" style="stop-color:#01BDEB"/>
		<stop  offset="0.7467" style="stop-color:#04AFDE"/>
		<stop  offset="0.8182" style="stop-color:#0898C7"/>
		<stop  offset="0.8928" style="stop-color:#0E77A8"/>
		<stop  offset="0.9692" style="stop-color:#164E80"/>
		<stop  offset="1" style="stop-color:#1A3B6E"/>
	</linearGradient>
	<path class="st49" d="M2818.01,2752.97c-4.87-10.47-3.81-16.14,5.43-24.06c28.46-24.38,38.61-56.08,29.97-92.59
		c-8.35-35.29-30.61-59.46-65.65-68.55c-41.43-10.74-84.12-3.16-126.23-4.45c-7.49-0.23-8.5,4.91-8.43,10.95
		c0.14,12.29,0.76,24.63-0.17,36.85c-0.87,11.34,3.72,14.44,14.35,14.27c29.54-0.47,59.08-0.16,88.63-0.12
		c8.38,0.01,16.68,0.29,23.98,5.35c11.73,8.15,16.81,22.43,12.7,36.15c-4.78,15.95-15.01,24.14-32.39,24.34
		c-30.52,0.36-61.07,0.64-91.58-0.17c-11.86-0.31-16.33,2.37-15.79,15.12c1.05,24.53,0.31,49.14,0.31,73.71
		c0.01,26.54,0.31,53.09-0.16,79.62c-0.16,9,2.71,12.25,11.82,11.78c12.77-0.65,25.63-0.77,38.39,0.03
		c10.3,0.64,13.83-2.94,13.68-13.23c-0.46-30.96-0.2-61.92-0.03-92.89c0.02-3.7-1.64-8.07,2.11-10.98
		c7.02-5.46,31.82,0.83,35.54,9.02c10.51,23.16,23.19,45.65,30.78,69.73c9.65,30.61,26.1,45.86,59.12,38.44
		c2.81-0.63,5.89-0.08,8.84-0.08c17.08-0.04,17.28-0.13,10.66-15.2C2848.79,2821.58,2833.87,2787.06,2818.01,2752.97z"/>
	<linearGradient id="SVGID_85_" gradientUnits="userSpaceOnUse" x1="686.204" y1="2716.9507" x2="3244.3596" y2="2716.9507">
		<stop  offset="0" style="stop-color:#FFFFFF"/>
		<stop  offset="0.0485" style="stop-color:#CEF3FC"/>
		<stop  offset="0.1039" style="stop-color:#9FE8F9"/>
		<stop  offset="0.1626" style="stop-color:#74DEF7"/>
		<stop  offset="0.2235" style="stop-color:#50D5F5"/>
		<stop  offset="0.2872" style="stop-color:#33CEF3"/>
		<stop  offset="0.3547" style="stop-color:#1CC9F2"/>
		<stop  offset="0.4277" style="stop-color:#0CC5F1"/>
		<stop  offset="0.5102" style="stop-color:#03C3F0"/>
		<stop  offset="0.6223" style="stop-color:#00C2F0"/>
		<stop  offset="0.6799" style="stop-color:#01BDEB"/>
		<stop  offset="0.7467" style="stop-color:#04AFDE"/>
		<stop  offset="0.8182" style="stop-color:#0898C7"/>
		<stop  offset="0.8928" style="stop-color:#0E77A8"/>
		<stop  offset="0.9692" style="stop-color:#164E80"/>
		<stop  offset="1" style="stop-color:#1A3B6E"/>
	</linearGradient>
	<path class="st50" d="M1307.61,2730.78c31.31-26.77,42.03-61.02,29.87-100.49c-12.17-39.5-40.47-61.72-81.4-65.9
		c-34.25-3.49-68.76-1.1-103.16-1.42c-11.51-0.11-14.24,4.45-13.42,14.84c0.82,10.26,1.24,20.76-0.07,30.92
		c-1.88,14.57,4.8,17.06,17.46,16.75c29.52-0.71,59.08-0.2,88.62-0.2c14.47,0,25.96,5.17,31.69,19.19
		c9.62,23.53-6.01,46.36-32.24,46.67c-31.01,0.36-62.04,0.43-93.05-0.12c-9.39-0.17-12.56,2.09-12.46,12.04
		c0.51,51.59,0.48,103.2,0.02,154.79c-0.09,9.91,1.99,14.22,12.83,13.38c12.24-0.95,24.66-0.96,36.89,0
		c10.89,0.86,12.96-3.49,12.77-13.36c-0.58-30.95-0.25-61.92-0.12-92.88c0.02-3.74-1.63-8.21,2.07-11.05
		c7.82-6.01,33,1.43,37.23,10.81c14.42,31.98,28.92,63.92,43.2,95.96c2.69,6.04,4.77,11.03,13.31,10.7
		c18.66-0.71,37.36-0.22,58.91-0.22c-18.3-41.43-35.33-80.82-53.22-119.83C1299.24,2742.41,1299.48,2737.73,1307.61,2730.78z"/>
	<linearGradient id="SVGID_86_" gradientUnits="userSpaceOnUse" x1="686.204" y1="2719.6843" x2="3244.3596" y2="2719.6843">
		<stop  offset="0" style="stop-color:#FFFFFF"/>
		<stop  offset="0.0485" style="stop-color:#CEF3FC"/>
		<stop  offset="0.1039" style="stop-color:#9FE8F9"/>
		<stop  offset="0.1626" style="stop-color:#74DEF7"/>
		<stop  offset="0.2235" style="stop-color:#50D5F5"/>
		<stop  offset="0.2872" style="stop-color:#33CEF3"/>
		<stop  offset="0.3547" style="stop-color:#1CC9F2"/>
		<stop  offset="0.4277" style="stop-color:#0CC5F1"/>
		<stop  offset="0.5102" style="stop-color:#03C3F0"/>
		<stop  offset="0.6223" style="stop-color:#00C2F0"/>
		<stop  offset="0.6799" style="stop-color:#01BDEB"/>
		<stop  offset="0.7467" style="stop-color:#04AFDE"/>
		<stop  offset="0.8182" style="stop-color:#0898C7"/>
		<stop  offset="0.8928" style="stop-color:#0E77A8"/>
		<stop  offset="0.9692" style="stop-color:#164E80"/>
		<stop  offset="1" style="stop-color:#1A3B6E"/>
	</linearGradient>
	<path class="st51" d="M1645.91,2804.55c-25.17-50.78-48.47-102.49-72.55-153.81c-12.98-27.66-26.07-55.28-39.19-83.1
		c-5.55,2.81-6.44,6.71-8.05,10.13c-25.42,53.95-50.87,107.88-76.29,161.82c-18.75,39.78-37.36,79.64-56.34,119.31
		c-4.26,8.9-4.57,13.27,7.53,12.49c13.23-0.85,26.63-1.07,39.81,0.07c11.7,1.02,17.09-3.36,21.92-13.88
		c22.03-47.92,45.1-95.36,68.44-144.31c6.5,5.39,7.93,11.22,10.35,16.35c19.84,41.99,39.99,83.85,58.98,126.22
		c5.4,12.05,11.94,17.06,25.28,15.65c12.65-1.33,25.57-0.67,38.34-0.16c9.36,0.37,13.22-1.37,7.66-11.14
		C1661.64,2842.38,1655.01,2822.93,1645.91,2804.55z"/>
	<linearGradient id="SVGID_87_" gradientUnits="userSpaceOnUse" x1="686.204" y1="2717.9387" x2="3244.3596" y2="2717.9387">
		<stop  offset="0" style="stop-color:#FFFFFF"/>
		<stop  offset="0.0485" style="stop-color:#CEF3FC"/>
		<stop  offset="0.1039" style="stop-color:#9FE8F9"/>
		<stop  offset="0.1626" style="stop-color:#74DEF7"/>
		<stop  offset="0.2235" style="stop-color:#50D5F5"/>
		<stop  offset="0.2872" style="stop-color:#33CEF3"/>
		<stop  offset="0.3547" style="stop-color:#1CC9F2"/>
		<stop  offset="0.4277" style="stop-color:#0CC5F1"/>
		<stop  offset="0.5102" style="stop-color:#03C3F0"/>
		<stop  offset="0.6223" style="stop-color:#00C2F0"/>
		<stop  offset="0.6799" style="stop-color:#01BDEB"/>
		<stop  offset="0.7467" style="stop-color:#04AFDE"/>
		<stop  offset="0.8182" style="stop-color:#0898C7"/>
		<stop  offset="0.8928" style="stop-color:#0E77A8"/>
		<stop  offset="0.9692" style="stop-color:#164E80"/>
		<stop  offset="1" style="stop-color:#1A3B6E"/>
	</linearGradient>
	<path class="st52" d="M2244.11,2564.25c-38.86,0.62-77.74,0.24-116.61,0.24c-39.86,0-79.73,0.26-119.59-0.19
		c-8.87-0.1-12.39,2.11-11.88,11.4c0.69,12.74,0.73,25.58,0.01,38.32c-0.54,9.64,2.67,12.62,12.42,12.37
		c25.59-0.65,51.21-0.12,76.81-0.23c7.22-0.03,11.97,0.93,11.89,10.3c-0.52,62.4,0.63,124.84-1.13,187.2
		c-1.34,47.42-2.9,47.38,44.22,47.36c0.99,0,2-0.16,2.95,0.02c13.4,2.59,16.18-3.32,16.07-16.06
		c-0.64-72.25-0.13-144.51-0.52-216.76c-0.05-9.58,2.49-12.54,12.23-12.27c24.6,0.68,49.25-0.25,73.85,0.45
		c10.59,0.3,15.5-2.08,14.52-13.71c-0.94-11.23-0.96-22.66,0-33.88C2260.4,2566.67,2255.34,2564.07,2244.11,2564.25z"/>
	<linearGradient id="SVGID_88_" gradientUnits="userSpaceOnUse" x1="686.204" y1="2596.3342" x2="3244.3596" y2="2596.3342">
		<stop  offset="0" style="stop-color:#FFFFFF"/>
		<stop  offset="0.0485" style="stop-color:#CEF3FC"/>
		<stop  offset="0.1039" style="stop-color:#9FE8F9"/>
		<stop  offset="0.1626" style="stop-color:#74DEF7"/>
		<stop  offset="0.2235" style="stop-color:#50D5F5"/>
		<stop  offset="0.2872" style="stop-color:#33CEF3"/>
		<stop  offset="0.3547" style="stop-color:#1CC9F2"/>
		<stop  offset="0.4277" style="stop-color:#0CC5F1"/>
		<stop  offset="0.5102" style="stop-color:#03C3F0"/>
		<stop  offset="0.6223" style="stop-color:#00C2F0"/>
		<stop  offset="0.6799" style="stop-color:#01BDEB"/>
		<stop  offset="0.7467" style="stop-color:#04AFDE"/>
		<stop  offset="0.8182" style="stop-color:#0898C7"/>
		<stop  offset="0.8928" style="stop-color:#0E77A8"/>
		<stop  offset="0.9692" style="stop-color:#164E80"/>
		<stop  offset="1" style="stop-color:#1A3B6E"/>
	</linearGradient>
	<path class="st53" d="M1952.31,2575.51c0.62-7.89-1.53-11.24-10.4-11.2c-65.81,0.34-131.63,0.28-197.44,0.06
		c-7.58-0.03-10.68,2.44-10.46,10.12c0.35,12.27,0.71,24.59-0.12,36.82c-0.76,11.21,2.29,15.53,14.57,15.17
		c31.46-0.92,62.96-0.31,94.45-0.31c20.17,0,40.35,0.25,60.51-0.08c15.64-0.26,36.72,6.65,45.52-2.45
		C1959.14,2613.11,1951.02,2591.97,1952.31,2575.51z"/>
	<linearGradient id="SVGID_89_" gradientUnits="userSpaceOnUse" x1="686.204" y1="2840.0686" x2="3244.3596" y2="2840.0686">
		<stop  offset="0" style="stop-color:#FFFFFF"/>
		<stop  offset="0.0485" style="stop-color:#CEF3FC"/>
		<stop  offset="0.1039" style="stop-color:#9FE8F9"/>
		<stop  offset="0.1626" style="stop-color:#74DEF7"/>
		<stop  offset="0.2235" style="stop-color:#50D5F5"/>
		<stop  offset="0.2872" style="stop-color:#33CEF3"/>
		<stop  offset="0.3547" style="stop-color:#1CC9F2"/>
		<stop  offset="0.4277" style="stop-color:#0CC5F1"/>
		<stop  offset="0.5102" style="stop-color:#03C3F0"/>
		<stop  offset="0.6223" style="stop-color:#00C2F0"/>
		<stop  offset="0.6799" style="stop-color:#01BDEB"/>
		<stop  offset="0.7467" style="stop-color:#04AFDE"/>
		<stop  offset="0.8182" style="stop-color:#0898C7"/>
		<stop  offset="0.8928" style="stop-color:#0E77A8"/>
		<stop  offset="0.9692" style="stop-color:#164E80"/>
		<stop  offset="1" style="stop-color:#1A3B6E"/>
	</linearGradient>
	<path class="st54" d="M1952.33,2819.72c0.44-8.51-2.3-10.84-10.64-10.73c-32.41,0.42-64.83,0.17-97.25,0.17
		c-32.91-0.01-65.82,0.25-98.72-0.18c-8.74-0.11-12.4,2.11-11.88,11.44c0.73,13.2,0.57,26.48,0.14,39.7
		c-0.27,8.23,2.66,11.08,11.05,11.04c65.82-0.27,131.64-0.27,197.47,0c7.97,0.03,10.13-2.82,9.87-10.27
		C1951.88,2847.18,1951.61,2833.41,1952.33,2819.72z"/>
	<linearGradient id="SVGID_90_" gradientUnits="userSpaceOnUse" x1="686.204" y1="2716.4875" x2="3244.3596" y2="2716.4875">
		<stop  offset="0" style="stop-color:#FFFFFF"/>
		<stop  offset="0.0485" style="stop-color:#CEF3FC"/>
		<stop  offset="0.1039" style="stop-color:#9FE8F9"/>
		<stop  offset="0.1626" style="stop-color:#74DEF7"/>
		<stop  offset="0.2235" style="stop-color:#50D5F5"/>
		<stop  offset="0.2872" style="stop-color:#33CEF3"/>
		<stop  offset="0.3547" style="stop-color:#1CC9F2"/>
		<stop  offset="0.4277" style="stop-color:#0CC5F1"/>
		<stop  offset="0.5102" style="stop-color:#03C3F0"/>
		<stop  offset="0.6223" style="stop-color:#00C2F0"/>
		<stop  offset="0.6799" style="stop-color:#01BDEB"/>
		<stop  offset="0.7467" style="stop-color:#04AFDE"/>
		<stop  offset="0.8182" style="stop-color:#0898C7"/>
		<stop  offset="0.8928" style="stop-color:#0E77A8"/>
		<stop  offset="0.9692" style="stop-color:#164E80"/>
		<stop  offset="1" style="stop-color:#1A3B6E"/>
	</linearGradient>
	<path class="st55" d="M1745.86,2747.57c19.19-0.54,38.4-0.17,57.6-0.17c20.18,0,40.38-0.29,60.55,0.15
		c7.59,0.16,10.67-2.23,10.49-9.95c-0.34-14.24-0.08-28.5-0.05-42.75c0.01-6.56-2.62-9.5-9.78-9.45
		c-40.37,0.27-80.74,0.24-121.11,0.02c-7.05-0.04-9.68,2.64-9.55,9.5c0.25,13.76,0.63,27.55-0.09,41.27
		C1733.41,2745.61,1737.17,2747.81,1745.86,2747.57z"/>
</g>
</svg>
