<svg xmlns="http://www.w3.org/2000/svg" xmlns:xlink="http://www.w3.org/1999/xlink" width="48" height="47" viewBox="0 0 48 47" version="1.1" _ngcontent-c3="" class="svg-convert" src="https://d1i2cp4a5c819e.cloudfront.net/wp-content/uploads/2020/02/ic-technology-titanium2x.svg" alt="ic-technology-titanium2x">
    <!-- Generator: Sketch 61.2 (89653) - https://sketch.com -->
    
    <desc>Created with Sketch.</desc>
    <g id="Page-1" stroke="none" stroke-width="1" fill="none" fill-rule="evenodd">
        <g id="ic-technology-titanium" fill="#252b33" fill-rule="nonzero">
            <path d="M9.52222989,35.6828841 C12.8166158,37.9744843 18.3706735,41.1432039 21.6314711,42.5604066 C15.8031755,46.0842988 10.8897852,47.3060852 8.68583611,45.3303229 L8.561704,45.2127826 L8.40603764,45.0453292 C6.90736526,43.3105042 7.32360036,39.9559615 9.23975457,35.8170948 L9.48299125,35.7037555 L9.52222989,35.6828841 Z M38.3932663,35.6442781 L38.7608562,35.8184327 C40.6893565,39.9844994 41.097989,43.3557432 39.5634778,45.0800873 L39.4382875,45.2127826 C37.2921333,47.3589368 32.2748001,46.1426162 26.3100145,42.5241832 C29.5325864,41.1106793 34.9115137,38.044642 38.1933296,35.7809482 L38.3932663,35.6442781 Z M23.9999907,16.9891773 C24.9048213,17.8137881 25.806491,18.6732273 26.7039926,19.570729 C31.6431902,24.5099266 35.518858,29.6407678 37.8885615,34.0726083 C34.1175108,36.7291335 25.2745698,41.6860976 23.9285698,41.6860976 C22.5946874,41.6860976 13.8982409,36.8179845 10.071634,34.144139 C12.4386285,29.6970866 16.3296964,24.5370315 21.2959988,19.570729 C22.1935005,18.6732273 23.0951702,17.8137881 23.9999907,16.9891773 Z M25.8323117,4.3569465 C31.9359539,0.382653275 36.8024659,-0.888440238 38.2992559,0.608349695 L38.2992559,0.608349695 L42.0733607,4.31636325 L41.7810406,4.36883113 C38.8604344,4.92768424 35.3368529,6.5634078 31.4902349,9.08021382 L31.4902349,9.08021382 L29.7772779,10.2009855 L31.2694325,11.6023511 L32.1697715,12.4614504 L33.0647261,13.3426445 L33.5288953,13.8107704 C43.2049173,23.6525141 48.3575161,34.1481398 45.7990209,36.706635 L45.7990209,36.706635 L41.9509373,40.4844163 L41.8673329,40.0015479 C40.7479389,34.1899195 35.5013374,26.0900106 27.8430242,18.4316975 C26.9393468,17.5280201 26.0203908,16.6510341 25.0850303,15.7985951 L25.0850303,15.7985951 L23.9999957,14.8097511 L22.9149612,15.7985951 L21.9850271,16.6592958 C21.3686609,17.2386571 20.7594189,17.8292459 20.1569673,18.4316975 L20.1569673,18.4316975 L19.6792541,18.9131516 C12.0870654,26.6249041 6.96560491,34.7247417 6.05472075,40.4440369 L6.05472075,40.4440369 L6.04706104,40.4844163 L2.1907627,36.6965178 L2.07521639,36.5691866 C-0.229548493,33.7705338 5.11644583,23.1614656 14.9352655,13.3426444 C15.5302641,12.7476458 16.128381,12.16789 16.730559,11.6023511 L16.730559,11.6023511 L18.2227136,10.2009855 L16.030632,8.7702162 C12.3705536,6.42896707 9.01786518,4.90439869 6.21895085,4.36883113 L6.21895085,4.36883113 L5.92463767,4.31636325 L9.69052768,0.61846686 L9.83020838,0.494227155 C10.2262943,0.18078122 10.8130018,0.011373759 11.6332812,0.0138186468 C14.2696422,0.0217678109 18.4248896,1.78893417 23.0921374,4.97328777 L23.0921374,4.97328777 L23.999922,5.59264791 L24.9077535,4.97335639 Z M46.9380524,6.83643418 C49.3642437,9.26262546 47.4980313,15.3553355 42.717238,22.3409296 C42.4060114,21.8864089 42.0822865,21.4276616 41.7465793,20.9658932 C41.65497,17.5599391 41.3867428,14.6012804 40.9413766,13.8298832 C40.5455349,13.1442656 38.5833541,11.7159033 36.112798,10.1556121 C36.6197096,9.2615061 37.0686094,8.39252364 37.4560984,7.55559663 C41.7714142,5.54067712 45.2466082,5.14498991 46.9380524,6.83643418 Z M10.5439586,7.55467398 C10.921217,8.37115276 11.357432,9.21804357 11.8488319,10.0890486 C9.32932821,11.6755494 7.31717392,13.1346171 6.91576093,13.829885 C6.46153226,14.616632 6.19156273,17.6785561 6.10585228,21.169794 C5.82251617,21.5628597 5.54841534,21.9530049 5.28327789,22.3404044 C0.581750618,15.4716151 -1.30092033,9.46653467 0.943816902,6.96121392 L1.06193902,6.83643418 L1.22895008,6.68115708 C2.97541105,5.17200098 6.36532429,5.60474734 10.5439586,7.55467398 Z M15.0273822,10.0411791 C15.2266169,10.1676238 15.4267821,10.2966283 15.6278091,10.4281584 C15.0150626,11.0036228 14.4048205,11.5950263 13.7962338,12.2036129 C11.5608308,14.4390163 9.54327322,16.7136744 7.78457656,18.945021 C7.88374581,16.7599425 8.05923914,15.0709903 8.31078391,14.6353021 C8.68778396,13.9823186 11.5881502,12.0697243 14.8024886,10.1731134 L15.0273822,10.0411791 Z M32.9047326,10.0843333 C36.1782767,12.0100036 39.1634977,13.9721746 39.5463536,14.6353003 C39.7904601,15.0581053 39.9629464,16.6611513 40.0638126,18.7518793 C38.3411482,16.58361 36.375235,14.3750906 34.2037576,12.2036129 C33.595171,11.5950263 32.9849289,11.0036228 32.3721824,10.4281584 C32.5503923,10.3115572 32.7279251,10.1969409 32.9047326,10.0843333 Z" id="Combined-Shape" fill="#252b33"></path>
        </g>
    </g>
</svg>