<svg xmlns="http://www.w3.org/2000/svg" xmlns:xlink="http://www.w3.org/1999/xlink" width="48" height="42" viewBox="0 0 48 42" version="1.1" _ngcontent-c3="" class="svg-convert" src="https://d1i2cp4a5c819e.cloudfront.net/wp-content/uploads/2020/02/ic-technology-xamarin2x.svg" alt="ic-technology-xamarin2x">
    <!-- Generator: Sketch 61.2 (89653) - https://sketch.com -->
    
    <desc>Created with Sketch.</desc>
    <g id="Page-1" stroke="none" stroke-width="1" fill="none" fill-rule="evenodd">
        <g id="ic-technology-xamarin" fill="#252b33" fill-rule="nonzero">
            <path d="M13.8499351,0 C12.5535579,0.00270346196 11.2845508,0.726365395 10.6319461,1.83033647 L0.481831596,19.1696568 C-0.160610532,20.2765837 -0.160610532,21.7234167 0.481831596,22.8303434 L10.6319461,40.1696636 C11.2846194,41.2736435 12.5535579,41.9974993 13.8499351,42 L34.1500924,42 C35.4464696,41.9972965 36.7154074,41.2736435 37.3680808,40.1696636 L47.5181936,22.8303434 C48.1606352,21.7234167 48.160569,20.2765837 47.5181936,19.1696568 L37.3680808,1.83033647 C36.7154074,0.726365395 35.4464696,0.00250070973 34.1500924,0 L13.8499351,0 L13.8499351,0 Z M14.0341601,10.1437123 C14.0620466,10.1410088 14.0912955,10.1410088 14.1192689,10.1437123 L17.6207407,10.1437123 C17.7757351,10.1468663 17.9260801,10.234954 18.0034813,10.3672613 L23.9433075,20.7764489 C23.9732053,20.8279137 23.99247,20.8852538 23.9997801,20.9441085 C24.0070944,20.8852404 24.0263406,20.8278956 24.0562526,20.7764489 L29.9818616,10.3672613 C30.0617188,10.2309439 30.2191067,10.1423695 30.378754,10.1437123 L33.8802274,10.1437123 C34.1902866,10.1464157 34.4224823,10.5304646 34.2771855,10.8004005 L28.4791997,21.0000023 L34.2771855,31.1856316 C34.4362348,31.4571178 34.1983256,31.8589733 33.8802274,31.8563014 L30.378754,31.8563014 C30.2163167,31.8549361 30.0579983,31.760234 29.9818616,31.6187665 L24.0562526,21.2095788 C24.0263543,21.1581141 24.0070899,21.1007691 23.9997801,21.0419194 C23.9924655,21.1007826 23.973219,21.1581367 23.9433075,21.2095788 L18.0034813,31.6187665 C17.9296048,31.7562328 17.7784597,31.8500291 17.6207407,31.8563014 L14.1192689,31.8563014 C13.8011702,31.8589912 13.5633254,31.4571178 13.7223747,31.1856316 L19.5203588,21.0000023 L13.7223747,10.8004005 C13.58339,10.5541154 13.7529585,10.196281 14.0341601,10.1437123 L14.0341601,10.1437123 L14.0341601,10.1437123 Z" id="Shape-Copy-3" fill="#252b33"></path>
        </g>
    </g>
</svg>