<svg xmlns="http://www.w3.org/2000/svg" xmlns:xlink="http://www.w3.org/1999/xlink" width="42" height="48" viewBox="0 0 42 48" version="1.1" _ngcontent-c3="" class="svg-convert" src="https://d1i2cp4a5c819e.cloudfront.net/wp-content/uploads/2020/02/ic-technology-drupal2x.svg" alt="ic-technology-drupal2x">
    <!-- Generator: Sketch 61.2 (89653) - https://sketch.com -->
    
    <desc>Created with Sketch.</desc>
    <g id="Page-1" stroke="none" stroke-width="1" fill="none" fill-rule="evenodd">
        <g id="ic-technology-drupal" fill="#252b33" fill-rule="nonzero">
            <path d="M31.4533977,8.92524356 C29.0019021,7.39886177 26.6893453,6.79772355 24.3767884,5.2717276 C22.9422467,4.30056911 20.9538801,1.98823189 19.2877739,0 C18.9643556,3.19089418 17.9929428,4.48577216 16.8833632,5.41024404 C14.5241075,7.26034533 13.0436389,7.81479695 11.0085734,8.92485772 C9.29692626,9.80341468 0,15.352561 0,27.2831099 C0,39.2144304 10.0375465,48 21.1846726,48 C32.3333425,48 42,39.9073985 42,27.6531301 C42,15.3988618 32.9338663,9.84971544 31.4533977,8.92524356 Z M31.7208546,43.6485 C31.4892901,43.8800039 29.3615989,45.359699 26.8641764,45.590817 C24.3659821,45.821935 20.9897726,45.9612231 18.9539352,44.1111218 C18.6305169,43.7870165 18.7231427,43.3251664 18.9539352,43.1399633 C19.1854997,42.9551461 19.3707512,42.815858 19.6482426,42.815858 C19.925734,42.815858 19.879807,42.815858 20.0183598,42.9084595 C20.9430737,43.6481142 22.3309166,44.2496383 25.291082,44.2496383 C28.2520193,44.2496383 30.3330117,43.4169962 31.2581116,42.7236423 C31.6749276,42.399537 31.8597932,42.6777274 31.9057202,42.8621588 C31.952419,43.0473618 32.0450448,43.3251664 31.7208546,43.6485 Z M23.6261337,39.4405325 C24.1348036,38.9779107 24.9680496,38.2386418 25.7542109,37.9145365 C26.5403722,37.5912029 26.9571881,37.6371178 27.6966506,37.6371178 C28.4368849,37.6371178 29.2230462,37.6830327 29.7788008,38.0534388 C30.3337836,38.4230732 30.6575879,39.2557153 30.8424535,39.7179512 C31.0273191,40.1801871 30.8424535,40.4576059 30.4723363,40.6424231 C30.148918,40.8276261 30.1022192,40.7350246 29.7788008,40.134658 C29.4546106,39.533134 29.1771192,38.9319958 27.5580979,38.9319958 C25.9390765,38.9319958 25.4300207,39.4868332 24.6438594,40.134658 C23.8576981,40.782097 23.5802068,41.013215 23.3027154,40.6424231 C23.025224,40.2727887 23.1170779,39.9031542 23.6261337,39.4405325 L23.6261337,39.4405325 Z M35.8839972,39.8105527 C34.2190489,39.6720363 30.8879945,34.4925244 28.7599173,34.4003087 C26.0780152,34.3077071 20.2487664,39.9953699 15.6695796,39.9953699 C12.8946657,39.9953699 12.0621916,39.5798206 11.1367057,38.9779107 C9.74886285,38.007138 9.05532736,36.527057 9.10164025,34.4925244 C9.14795314,30.8853092 12.5245486,27.5095978 16.7799311,27.463297 C22.1919779,27.4177679 25.9383046,32.8276261 28.6680634,32.7813254 C30.9806203,32.7354104 35.4212543,28.2037234 37.5952584,28.2037234 C39.9078153,28.2037234 40.5561957,30.6082763 40.5561957,32.0416707 C40.5561957,33.4750651 40.0934528,36.0648211 38.9831013,37.6830327 C37.8727498,39.3016302 37.1792143,39.9031542 35.8839972,39.8105527 L35.8839972,39.8105527 Z" id="Shape-Copy-4" fill="#252b33"></path>
        </g>
    </g>
</svg>