<svg xmlns="http://www.w3.org/2000/svg" xmlns:xlink="http://www.w3.org/1999/xlink" width="47" height="47" viewBox="0 0 47 47" version="1.1" _ngcontent-c3="" class="svg-convert" src="https://d1i2cp4a5c819e.cloudfront.net/wp-content/uploads/2020/02/ic-technology-joomla2x.svg" alt="ic-technology-joomla2x">
    <!-- Generator: Sketch 61.2 (89653) - https://sketch.com -->
    
    <desc>Created with Sketch.</desc>
    <g id="Page-1" stroke="none" stroke-width="1" fill="none" fill-rule="evenodd">
        <g id="ic-technology-joomla" fill="#252b33" fill-rule="nonzero">
            <path d="M28.5963269,14.380125 L33.0862728,18.8647917 L37.6968674,23.4618333 L38.598489,24.3647083 C41.1586354,26.9127854 42.198227,30.6060705 41.3409755,34.10775 C44.4231385,34.5447759 46.7118411,37.1744214 46.7078995,40.2741667 C46.7078995,43.7105828 43.9115056,46.4971482 40.4601106,46.5 C37.4902419,46.4990209 34.9309643,44.4178358 34.3368674,41.520625 C30.6772846,42.6409227 26.6954907,41.6587372 23.984435,38.967 L23.984435,38.967 L23.9896242,38.967 L28.5963269,34.3699583 C30.0933569,35.8458759 32.5062351,35.8418372 33.9982728,34.3609167 C35.4903752,32.864099 35.4857348,30.4477089 33.9878944,28.9565833 L33.9878944,28.9565833 L33.0849755,28.058875 L28.4795701,23.4618333 L23.984435,18.975875 L28.5963269,14.3852917 L28.5963269,14.380125 Z M7.49967821,24.37375 L12.1115701,28.9720833 C10.6335795,30.4672359 10.6399442,32.8683856 12.1258404,34.35575 C12.844506,35.0738976 13.8205151,35.4779971 14.8387103,35.4789663 C15.8569055,35.4799355 16.8336889,35.0776948 17.5537323,34.3609167 L17.5537323,34.3609167 L18.4553539,33.45675 L23.0607593,28.8661667 L27.5623809,24.3750417 L32.1677863,28.9720833 L27.6726512,33.4502917 L23.0672458,38.0525 L22.1591377,38.9502083 C19.5926744,41.5113036 15.8638711,42.5422052 12.3385971,41.6652917 C11.6828306,44.4889951 9.15862534,46.4899592 6.24778632,46.4935417 C2.79639139,46.4906899 1.2680068e-06,43.7041244 1.2680068e-06,40.2677083 C-0.00183404775,37.381823 1.98884041,34.8731353 4.80908362,34.2072083 C3.90338563,30.6863364 4.92551087,26.9507212 7.49967821,24.37375 L7.49967821,24.37375 Z M6.30875929,3.89022148e-13 C9.3694029,0.00306598116 11.9785908,2.2102115 12.4761106,5.21704167 C15.9587854,4.39855833 19.6188296,5.4331143 22.1500566,7.9515 L22.1500566,7.9515 L17.5381647,12.5485417 C16.039354,11.0744052 13.6264711,11.0813286 12.1362188,12.5640417 C10.6386388,14.0567892 10.6340005,16.4738155 12.1258404,17.97225 L12.1258404,17.97225 L13.0339485,18.8699583 L17.6393539,23.4618333 L22.1500566,27.9529583 L22.1435701,27.9529583 L17.5381647,32.5435417 L13.0326512,28.058875 L8.42205659,23.4618333 L7.51913767,22.5692917 C4.82466698,19.8832925 3.82997872,15.9406631 4.92973227,12.3057083 C2.14313767,11.6766667 0.0648652435,9.19795833 0.0648652435,6.22583333 C0.0634906357,4.57578615 0.720595362,2.99279491 1.8915896,1.82518742 C3.06258384,0.657579921 4.65151898,0.00102728427 6.30875929,3.89022148e-13 Z M40.4030296,3.89022148e-13 C43.8549312,0.00213916188 46.6521154,2.78891324 46.6521154,6.22583333 C46.6559661,9.34811137 44.3373813,11.990761 41.2294079,12.4064583 C42.2684622,16.0092644 41.2677855,19.8898255 38.6140566,22.548625 L38.6140566,22.548625 L34.003462,17.95675 C35.4951682,16.4588612 35.4890696,14.0447526 33.9898404,12.5595208 C32.4906112,11.0742891 30.065979,11.0803612 28.5742728,12.5730833 L28.5742728,12.5730833 L27.6791377,13.4720833 L23.0672458,18.0626667 L18.5617323,22.5537917 L13.9498404,17.95675 L18.4553539,13.4669167 L23.9688674,7.97733333 C26.6473034,5.30623966 30.5773591,4.30544752 34.2149215,5.36816667 C34.6445347,2.29272018 37.2844444,0.00260583458 40.4030296,3.89022148e-13 Z" id="Combined-Shape" fill="#252b33"></path>
        </g>
    </g>
</svg>