<svg xmlns="http://www.w3.org/2000/svg" xmlns:xlink="http://www.w3.org/1999/xlink" width="60" height="24" viewBox="0 0 60 24" version="1.1" _ngcontent-c3="" class="svg-convert" src="https://d1i2cp4a5c819e.cloudfront.net/wp-content/uploads/2020/02/ic-technology-microsoft-dot-net2x.svg" alt="ic-technology-microsoft-dot-net2x">
    <!-- Generator: Sketch 61.2 (89653) - https://sketch.com -->
    
    <desc>Created with Sketch.</desc>
    <g id="Page-1" stroke="none" stroke-width="1" fill="none" fill-rule="evenodd">
        <g id="ic-technology-microsoft-dot-net" fill="#252b33" fill-rule="nonzero">
            <path d="M59.7839024,-1.27897692e-13 C51.6741463,14.25504 46.7726829,22.82688 41.9117073,22.82688 C41.6517073,22.82688 41.4102439,22.78416 41.1785366,22.70016 L41.1785366,22.70016 L41.2765854,22.67904 L41.316,22.669 L41.2731707,22.67952 L41.2365854,22.6872 L41.2258537,22.6872 L41.1741463,22.69824 C40.5146341,22.45968 39.96,21.89712 39.4834146,21.09648 C39.4873344,21.1034929 39.4867559,21.1041857 39.4861774,21.1048783 L39.4829268,21.1152 C39.9595122,21.91536 40.5131707,22.47744 41.175122,22.71552 L41.165,22.711 L41.1804878,22.7088 C41.4121951,22.7928 41.6536585,22.83552 41.9136585,22.83552 L40.0658537,22.8432 L40.064878,22.83456 L35.04,22.83456 C35.2554324,22.83456 35.4627212,22.8299901 35.662494,22.8202473 L35.3568518,22.8310576 L35.3568518,22.8310576 L35.0395122,22.83456 C34.6873171,22.83456 34.3512195,22.80096 34.0273171,22.73568 C33.9436098,22.719072 33.8608976,22.7004096 33.779122,22.679735 L33.5366517,22.6119245 C33.6965268,22.661376 33.8598049,22.70304 34.0268293,22.73664 C34.3507317,22.80144 34.6873171,22.83504 35.04,22.83504 L30.0360976,22.83504 L30.0360976,22.83456 C30.3953659,22.83456 30.7579268,22.80864 31.1219284,22.7568 L30.7582317,22.79964 C30.5162195,22.82256 30.275122,22.83408 30.0356098,22.83408 C23.735122,22.83408 22.9190244,11.26896 20.7643902,4.7856 C19.2502439,6.26496 17.7273171,8.08944 16.2,10.20768 C16.9678049,7.83312 17.6034146,6.01344 18.2253659,4.6296 L18.2147012,4.6542287 C18.2136993,4.65516878 18.2126974,4.65610901 18.2116955,4.65704939 C17.5931298,6.03820026 16.9621672,7.84716925 16.1985366,10.20528 C15.5726829,12.13776 14.8570732,14.44368 13.9863415,17.18016 C12.8404878,20.79072 10.5307317,23.27952 5.47902439,23.41872 L5.797,23.406 L5.785,23.406 L5.769,23.407 L5.69853659,23.4144 L5.68682927,23.4144 L5.50390244,23.4264 L4.66341463,23.4264 L2.83170732,23.43408 L2.56487805,23.43408 C2.81512195,21.53904 3.17414634,19.73232 3.61756098,18.02736 C8.60926829,8.56224 10.9741463,2.57184 15.1487805,0.95088 L15.1487805,0.95088 L15.175122,0.9384 L15.2536585,0.9096 L15.2887805,0.8952 L15.3731707,0.8664 L15.5590244,0.80208 L15.5882927,0.7944 L15.6678049,0.77088 L15.7043902,0.7608 L15.7853659,0.73728 L15.8160976,0.72864 L16.0839024,0.66048 L16.12,0.65184 L16.1965854,0.63696 L16.2360976,0.6264 L16.315122,0.61104 L16.3336585,0.61104 L16.4960976,0.5832 L16.5282927,0.57552 L16.6034146,0.56256 L16.6453659,0.55536 L16.698,0.548 L16.68,0.547 L16.6458537,0.552 L16.6034146,0.5592 L16.5282927,0.57216 L16.4960976,0.57216 L16.3336585,0.60192 L16.315122,0.60192 L16.2365854,0.61632 L16.1985366,0.62784 L16.1204878,0.64272 L16.0839024,0.65088 L15.8165854,0.71904 L15.7858537,0.7272 L15.7053659,0.75072 L15.6687805,0.76224 L15.5887805,0.78576 L15.5609756,0.79296 L15.3741463,0.85728 L15.3697561,0.85728 L15.2853659,0.88704 L15.264878,0.8952 L15.2492683,0.90288 L15.1707317,0.93264 L15.1643902,0.93264 L15.1531707,0.93984 L15.1439024,0.94752 L15.1439024,0.94608 L14.9224295,1.03759725 C10.8839707,2.78305087 8.51525261,8.72742 3.61268293,18.02352 C3.98839538,16.5760926 4.42563205,15.2013394 4.91254332,13.9058697 L4.75173482,14.3397684 C4.3288482,15.5069973 3.94623021,16.7363032 3.61219512,18.02304 C2.71902439,19.71744 1.74243902,21.52272 0.655121951,23.43072 L0.655121951,23.43072 L-9.48574552e-13,23.43072 C3.39707317,10.48704 10.9395122,0.49248 16.4141463,0.49248 C16.5907317,0.49248 16.7634146,0.50304 16.9317073,0.5184 L16.9317073,0.5184 L16.838,0.526 L16.933,0.526 L16.9326829,0.52224 L16.95,0.526 L17.057,0.526 L17.1382927,0.5211 L17.1382927,0.5211 L17.3404878,0.516 C17.4503653,0.516 17.5588719,0.51916603 17.6660367,0.525424531 L23.9173502,0.52669824 L23.9173502,0.52669824 L23.9173502,0.52912128 L25.9125923,0.529443176 C26.1501771,0.507398783 26.3865732,0.49632 26.6209756,0.49632 C26.7169686,0.49632 26.8117011,0.499054564 26.9052076,0.50445537 L26.6204878,0.49584 L26.6204878,0.49584 L29.115122,0.50496 C28.7233869,0.50496 28.3283713,0.535806141 27.9335411,0.599048678 C28.3282548,0.537096205 28.7231451,0.50592 29.115122,0.50592 C35.4595122,0.50592 36.2434146,12.23712 38.4326829,18.68976 C37.904878,19.18656 37.3780488,19.6416 36.8521951,20.05296 L37.0833655,19.8695846 C37.5329135,19.5072751 37.9831738,19.113281 38.4341463,18.6888 L38.4341463,18.6888 L38.434,18.69 C38.4387157,18.6833729 38.4393825,18.6827457 38.4400494,18.6821184 C39.567929,16.1696197 40.7390417,12.2268909 42.6721951,6.14544 C43.7770732,2.66112 45.9741463,0.30816 50.6746341,0.0312 L50.665,0.032 L50.6697561,0.02496 L51.1429268,0.0024 L54.1287805,0.0024 L54.1263415,0.00384 L56.004878,0.00384 C49.2790244,11.82624 47.1156098,19.74048 42.8302439,22.09632 L42.837,22.092 L42.845,22.088 L43.0299176,21.9827096 C47.1207466,19.5344071 49.3152609,11.8874596 55.6996209,0.545290347 L56.0068293,0.0024 L56.6,0.0024 C56.5568223,0.166285859 56.5129508,0.32969599 56.4683988,0.492615987 L56.6,0.0024 L56.5995122,-1.27897692e-13 Z M3.61268293,18.024 C3.16878049,19.7304 2.81170732,21.53664 2.5595122,23.43168 L2.5595122,23.43168 L0.655121951,23.43168 C1.74292683,21.52368 2.7195122,19.7184 3.61268293,18.024 L3.61268293,18.024 Z" id="Combined-Shape" fill="#252b33"></path>
        </g>
    </g>
</svg>