<svg xmlns="http://www.w3.org/2000/svg" xmlns:xlink="http://www.w3.org/1999/xlink" width="48" height="48" viewBox="0 0 48 48" version="1.1" _ngcontent-c3="" class="svg-convert" src="https://d1i2cp4a5c819e.cloudfront.net/wp-content/uploads/2020/02/ic-technology-phthon2x.svg" alt="ic-technology-phthon2x">
    <!-- Generator: Sketch 61.2 (89653) - https://sketch.com -->
    
    <desc>Created with Sketch.</desc>
    <g id="Page-1" stroke="none" stroke-width="1" fill="none" fill-rule="evenodd">
        <g id="ic-technology-phthon" fill="#252b33" fill-rule="nonzero">
            <path d="M40.989276,12.0140279 C41.2769522,12.0015037 47.7496649,11.8525891 47.7496649,23.8118227 C47.7496649,36.0428627 39.9929081,35.1631784 39.9929081,35.1631784 L23.8307459,35.1631784 L23.8307459,36.7983135 L35.3983135,36.7983135 L35.411827,42.2442595 C35.411827,42.2442595 36.1687957,47.5010162 24.0469622,47.5010162 C11.3790997,47.5010162 12.3577721,41.1631784 12.3577721,41.1631784 L12.3577721,30.6902054 C12.3577721,24.6729691 18.1752383,24.4661468 18.7569849,24.4605077 L30.2766919,24.4604714 C37.156653,24.4604714 36.9388541,17.6902011 36.9388541,17.6902011 L36.9388541,12.0145267 Z M30.4253405,39.6766919 C29.2744519,39.6766919 28.3442595,40.6068843 28.3442595,41.757773 C28.3442595,42.9086616 29.2744519,43.8388541 30.4253405,43.8388541 C31.5762292,43.8388541 32.5064216,42.9086616 32.5064216,41.757773 C32.5064216,40.6068843 31.5762292,39.6766919 30.4253405,39.6766919 Z M23.7027027,3.45501405e-13 C36.3705643,3.45501405e-13 35.3918919,6.33783697 35.3918919,6.33783784 L35.3918919,6.33783784 L35.3918919,16.8108108 C35.3918919,22.828043 29.5744257,23.0348651 28.9926791,23.0405042 L17.472973,23.0405405 C11.1390437,23.0405405 10.8209475,28.7788094 10.8103523,29.6896458 L10.8108108,35.4864865 L6.76038883,35.4869853 C6.47271271,35.4995095 3.39284156e-13,35.6484241 3.39284156e-13,23.6891892 C3.39284156e-13,11.4581509 7.75675676,12.3378378 7.75675676,12.3378378 L23.9189189,12.3378378 L23.9189189,10.7027027 L12.3513514,10.7027027 L12.3378378,5.25675676 C12.3378378,5.25675676 11.5808726,3.45501405e-13 23.7027027,3.45501405e-13 Z M17.3243243,3.66216216 C16.1734361,3.66216216 15.2432432,4.59235503 15.2432432,5.74324324 C15.2432432,6.89413146 16.1734361,7.82432432 17.3243243,7.82432432 C18.4752125,7.82432432 19.4054054,6.89413146 19.4054054,5.74324324 C19.4054054,4.59235503 18.4752125,3.66216216 17.3243243,3.66216216 Z" id="Combined-Shape" fill="#252b33"></path>
        </g>
    </g>
</svg>