<svg xmlns="http://www.w3.org/2000/svg" xmlns:xlink="http://www.w3.org/1999/xlink" width="51" height="32" viewBox="0 0 51 32" version="1.1" _ngcontent-c3="" class="svg-convert" src="https://d1i2cp4a5c819e.cloudfront.net/wp-content/uploads/2020/02/ic-technology-rails2x.svg" alt="ic-technology-rails2x">
    <!-- Generator: Sketch 61.2 (89653) - https://sketch.com -->
    
    <desc>Created with Sketch.</desc>
    <g id="Page-1" stroke="none" stroke-width="1" fill="none" fill-rule="evenodd">
        <g id="ic-technology-rails" fill="#252b33" fill-rule="nonzero">
            <path d="M26.287037,2.36111111 C39.3068783,1.05687831 51,12.7275132 51,12.7275132 C51,12.7275132 50.6177249,12.9973545 50.212963,13.3346561 C37.4404762,3.89021164 29.6375661,8.34259259 27.1865079,9.53439153 C15.9431217,15.8082011 19.3386243,31.3015873 19.3386243,31.3015873 L19.3386243,31.3015873 L1.57407407,31.3015873 C1.57407407,31.3015873 1.58189787,31.2243925 1.60175829,31.0767995 L1.61008108,31.0092551 C1.79624871,29.6447725 2.80738706,23.6768417 6.9484127,16.7751323 C11.6706349,8.9047619 19.7208995,2.9457672 26.287037,2.36111111 Z M20.0132275,26.8042328 L22.4417989,27.6812169 C22.5767196,28.7380952 22.7791005,29.7275132 22.9814815,30.6044974 L22.9814815,30.6044974 L20.2830688,29.6375661 C20.1706349,28.962963 20.0582011,27.9960317 20.0132275,26.8042328 L20.0132275,26.8042328 Z M1.12433862,19.5185185 L3.71031746,20.462963 C3.3505291,21.2949735 2.87830688,22.3968254 2.58597884,23.1613757 L2.58597884,23.1613757 L0,22.2169312 C0.224867725,21.6097884 0.697089947,20.4854497 1.12433862,19.5185185 L1.12433862,19.5185185 Z M21.0251323,18.6190476 L22.6441799,19.9007937 C22.4193122,20.7777778 22.2619048,21.6547619 22.1719577,22.531746 L22.1719577,22.531746 L20.3505291,21.0925926 C20.5304233,20.2830688 20.7328042,19.4510582 21.0251323,18.6190476 L21.0251323,18.6190476 Z M25.005291,12.3452381 L26.0171958,13.8743386 C25.5224868,14.3915344 25.0727513,14.9087302 24.6904762,15.4708995 L24.6904762,15.4708995 L23.6111111,13.8518519 C24.015873,13.3346561 24.4880952,12.8174603 25.005291,12.3452381 L25.005291,12.3452381 Z M8.9047619,9.01719577 L10.5013228,10.4113757 C9.96164021,10.973545 9.44444444,11.5806878 8.97222222,12.1878307 L8.97222222,12.1878307 L7.24074074,10.7037037 C7.75793651,10.1415344 8.32010582,9.57936508 8.9047619,9.01719577 L8.9047619,9.01719577 Z M31.1891534,8.92724868 L31.6838624,10.4113757 C31.031746,10.6137566 30.3796296,10.8835979 29.7275132,11.1984127 L29.7275132,11.1984127 L29.2103175,9.6468254 C29.7724868,9.3994709 30.4246032,9.1521164 31.1891534,8.92724868 L31.1891534,8.92724868 Z M36.4510582,8.38756614 C37.1706349,8.43253968 37.9126984,8.52248677 38.6772487,8.67989418 L38.6772487,8.67989418 L38.5873016,10.0740741 C37.8452381,9.91666667 37.1031746,9.82671958 36.3611111,9.8042328 L36.3611111,9.8042328 Z M17.989418,2.18121693 L19.0013228,3.73280423 C18.4166667,4.02513228 17.8544974,4.36243386 17.2698413,4.72222222 L17.2698413,4.72222222 L16.2354497,3.14814815 C16.8425926,2.78835979 17.4272487,2.47354497 17.989418,2.18121693 L17.989418,2.18121693 Z M36.4960317,1.32671958 C37.9126984,1.73148148 38.4748677,2.00132275 38.6772487,2.11375661 L38.6772487,2.11375661 L38.5873016,3.62037037 C37.8677249,3.32804233 37.1481481,3.05820106 36.4060847,2.81084656 L36.4060847,2.81084656 Z M27.9060847,7.72715225e-14 L28.3558201,1.37169312 L28.1309524,1.37169312 C27.478836,1.37169312 26.8267196,1.39417989 26.1746032,1.46164021 L26.1746032,1.46164021 L25.7473545,0.134920635 C26.489418,0.044973545 27.2089947,7.72715225e-14 27.9060847,7.72715225e-14 L27.9060847,7.72715225e-14 Z" id="Combined-Shape-Copy-21" fill="#252b33"></path>
        </g>
    </g>
</svg>